<svg width="436" height="441" viewBox="0 0 436 441" fill="none" xmlns="http://www.w3.org/2000/svg">
<path d="M198.025 100.527C216.588 97.1273 229.249 79.2948 226.303 60.6972C223.358 42.0996 205.922 29.7795 187.359 33.1795C168.796 36.5796 156.135 54.4121 159.081 73.0097C162.026 91.6073 179.462 103.927 198.025 100.527Z" fill="#FF0047"/>
<path d="M104.086 155.338C122.649 151.938 135.309 134.106 132.364 115.508C129.418 96.9107 111.982 84.5907 93.4195 87.9907C74.8565 91.3907 62.1961 109.223 65.1415 127.821C68.087 146.418 85.5229 158.738 104.086 155.338Z" fill="#FF0047"/>
<path d="M66.3178 258.39C84.8808 254.99 97.5412 237.158 94.5958 218.561C91.6503 199.963 74.2144 187.643 55.6514 191.043C37.0885 194.443 24.428 212.275 27.3735 230.873C30.3189 249.47 47.7549 261.79 66.3178 258.39Z" fill="#FF0047"/>
<path d="M102.482 361.893C121.045 358.493 133.705 340.66 130.76 322.063C127.814 303.465 110.378 291.145 91.8152 294.545C73.2523 297.945 60.5919 315.778 63.5373 334.375C66.4828 352.973 83.9187 365.293 102.482 361.893Z" fill="#FF0047"/>
<path d="M195.435 417.133C213.998 413.733 226.658 395.901 223.713 377.303C220.767 358.706 203.331 346.386 184.769 349.786C166.206 353.186 153.545 371.018 156.49 389.616C159.436 408.213 176.872 420.533 195.435 417.133Z" fill="#FF0047"/>
<path d="M301.828 398.374C320.391 394.974 333.052 377.141 330.106 358.544C327.161 339.946 309.725 327.626 291.162 331.026C272.599 334.426 259.939 352.258 262.884 370.856C265.829 389.454 283.265 401.774 301.828 398.374Z" fill="#FF0047"/>
<path d="M372.057 314.359C390.62 310.959 403.281 293.127 400.336 274.529C397.39 255.931 379.954 243.611 361.391 247.011C342.828 250.411 330.168 268.244 333.113 286.842C336.058 305.439 353.494 317.759 372.057 314.359Z" fill="#FF0047"/>
<path d="M372.832 204.344C391.395 200.945 404.056 183.113 401.111 164.515C398.167 145.917 380.731 133.597 362.168 136.996C343.605 140.396 330.944 158.228 333.889 176.826C336.834 195.423 354.269 207.744 372.832 204.344Z" fill="#FF0047"/>
<path d="M304.207 120.052C322.77 116.652 335.43 98.8191 332.485 80.2215C329.539 61.624 312.103 49.304 293.54 52.704C274.977 56.104 262.317 73.9365 265.262 92.534C268.208 111.132 285.644 123.452 304.207 120.052Z" fill="#FF0047"/>
</svg>
