<svg width="510" height="510" viewBox="0 0 510 510" fill="none" xmlns="http://www.w3.org/2000/svg">
<path d="M262.264 0H248.027V145.502H262.264V0Z" fill="url(#paint0_linear)"/>
<path d="M217.603 2.82875L203.583 5.30029L228.842 148.59L242.862 146.119L217.603 2.82875Z" fill="url(#paint1_linear)"/>
<path d="M174.638 13.0541L161.259 17.9231L211.021 154.651L224.399 149.782L174.638 13.0541Z" fill="url(#paint2_linear)"/>
<path d="M133.795 30.5651L121.466 37.6836L194.217 163.688L206.546 156.57L133.795 30.5651Z" fill="url(#paint3_linear)"/>
<path d="M96.51 55.0838L85.6045 64.2354L179.133 175.69L190.039 166.538L96.51 55.0838Z" fill="url(#paint4_linear)"/>
<path d="M64.2917 85.8267L55.1401 96.7322L166.594 190.261L175.746 179.355L64.2917 85.8267Z" fill="url(#paint5_linear)"/>
<path d="M37.6907 121.409L30.5723 133.738L156.577 206.489L163.695 194.159L37.6907 121.409Z" fill="url(#paint6_linear)"/>
<path d="M17.7577 161.036L12.8887 174.415L149.617 224.176L154.486 210.798L17.7577 161.036Z" fill="url(#paint7_linear)"/>
<path d="M5.04234 203.706L2.5708 217.726L145.861 242.985L148.332 228.965L5.04234 203.706Z" fill="url(#paint8_linear)"/>
<path d="M6.04672e-10 247.69L0 261.927L145.502 261.927L145.502 247.69L6.04672e-10 247.69Z" fill="url(#paint9_linear)"/>
<path d="M2.69253 292.35L5.16406 306.371L148.454 281.112L145.983 267.091L2.69253 292.35Z" fill="url(#paint10_linear)"/>
<path d="M13.0123 335.502L17.8813 348.88L154.609 299.119L149.74 285.74L13.0123 335.502Z" fill="url(#paint11_linear)"/>
<path d="M30.592 376.409L37.7104 388.738L163.715 315.987L156.597 303.658L30.592 376.409Z" fill="url(#paint12_linear)"/>
<path d="M55.1659 413.444L64.3174 424.349L175.772 330.821L166.62 319.915L55.1659 413.444Z" fill="url(#paint13_linear)"/>
<path d="M85.8718 445.626L96.7773 454.777L190.306 343.323L179.4 334.171L85.8718 445.626Z" fill="url(#paint14_linear)"/>
<path d="M121.347 472.035L133.676 479.154L206.427 353.149L194.098 346.031L121.347 472.035Z" fill="url(#paint15_linear)"/>
<path d="M160.995 492.017L174.373 496.886L224.135 360.158L210.756 355.289L160.995 492.017Z" fill="url(#paint16_linear)"/>
<path d="M203.802 504.814L217.822 507.286L243.081 363.996L229.061 361.524L203.802 504.814Z" fill="url(#paint17_linear)"/>
<path d="M247.735 510L261.972 510L261.972 364.498L247.735 364.498L247.735 510Z" fill="url(#paint18_linear)"/>
<path d="M292.202 507.079L306.223 504.608L280.964 361.318L266.943 363.789L292.202 507.079Z" fill="url(#paint19_linear)"/>
<path d="M335.323 496.9L348.701 492.031L298.94 355.303L285.561 360.172L335.323 496.9Z" fill="url(#paint20_linear)"/>
<path d="M376.179 479.301L388.508 472.182L315.757 346.178L303.428 353.296L376.179 479.301Z" fill="url(#paint21_linear)"/>
<path d="M413.407 454.836L424.313 445.684L330.784 334.23L319.879 343.381L413.407 454.836Z" fill="url(#paint22_linear)"/>
<path d="M445.623 424.164L454.774 413.259L343.32 319.73L334.169 330.635L445.623 424.164Z" fill="url(#paint23_linear)"/>
<path d="M472.284 388.636L479.402 376.307L353.398 303.556L346.279 315.885L472.284 388.636Z" fill="url(#paint24_linear)"/>
<path d="M492.201 348.919L497.07 335.541L360.342 285.779L355.473 299.158L492.201 348.919Z" fill="url(#paint25_linear)"/>
<path d="M505.044 306.346L507.516 292.325L364.225 267.066L361.754 281.086L505.044 306.346Z" fill="url(#paint26_linear)"/>
<path d="M510 262.22L510 247.983L364.498 247.983L364.498 262.22L510 262.22Z" fill="url(#paint27_linear)"/>
<path d="M507.223 217.701L504.751 203.681L361.461 228.94L363.933 242.96L507.223 217.701Z" fill="url(#paint28_linear)"/>
<path d="M497.029 174.455L492.16 161.076L355.432 210.838L360.301 224.216L497.029 174.455Z" fill="url(#paint29_linear)"/>
<path d="M479.43 133.636L472.312 121.306L346.307 194.057L353.426 206.386L479.43 133.636Z" fill="url(#paint30_linear)"/>
<path d="M454.918 96.5464L445.766 85.6409L334.312 179.169L343.463 190.075L454.918 96.5464Z" fill="url(#paint31_linear)"/>
<path d="M424.211 64.2941L413.306 55.1426L319.777 166.597L330.683 175.748L424.211 64.2941Z" fill="url(#paint32_linear)"/>
<path d="M388.677 37.8299L376.348 30.7114L303.597 156.716L315.926 163.834L388.677 37.8299Z" fill="url(#paint33_linear)"/>
<path d="M349.046 17.9367L335.668 13.0676L285.906 149.796L299.285 154.665L349.046 17.9367Z" fill="url(#paint34_linear)"/>
<path d="M306.391 5.09409L292.371 2.62256L267.111 145.913L281.132 148.384L306.391 5.09409Z" fill="url(#paint35_linear)"/>
<defs>
<linearGradient id="paint0_linear" x1="257.446" y1="1.43414e-06" x2="222.021" y2="8.30066" gradientUnits="userSpaceOnUse">
<stop stop-color="#FF3F00"/>
<stop offset="1" stop-color="#FF0047"/>
</linearGradient>
<linearGradient id="paint1_linear" x1="212.858" y1="3.66528" x2="179.412" y2="17.9895" gradientUnits="userSpaceOnUse">
<stop stop-color="#FF3F00"/>
<stop offset="1" stop-color="#FF0047"/>
</linearGradient>
<linearGradient id="paint2_linear" x1="170.11" y1="14.702" x2="139.66" y2="34.6174" gradientUnits="userSpaceOnUse">
<stop stop-color="#FF3F00"/>
<stop offset="1" stop-color="#FF0047"/>
</linearGradient>
<linearGradient id="paint3_linear" x1="129.622" y1="32.9744" x2="103.095" y2="57.8751" gradientUnits="userSpaceOnUse">
<stop stop-color="#FF3F00"/>
<stop offset="1" stop-color="#FF0047"/>
</linearGradient>
<linearGradient id="paint4_linear" x1="92.8189" y1="58.1813" x2="71.0193" y2="87.3105" gradientUnits="userSpaceOnUse">
<stop stop-color="#FF3F00"/>
<stop offset="1" stop-color="#FF0047"/>
</linearGradient>
<linearGradient id="paint5_linear" x1="61.1942" y1="89.5178" x2="44.7816" y2="121.989" gradientUnits="userSpaceOnUse">
<stop stop-color="#FF3F00"/>
<stop offset="1" stop-color="#FF0047"/>
</linearGradient>
<linearGradient id="paint6_linear" x1="35.2814" y1="125.582" x2="24.7575" y2="160.41" gradientUnits="userSpaceOnUse">
<stop stop-color="#FF3F00"/>
<stop offset="1" stop-color="#FF0047"/>
</linearGradient>
<linearGradient id="paint7_linear" x1="16.1097" y1="165.564" x2="11.7946" y2="201.692" gradientUnits="userSpaceOnUse">
<stop stop-color="#FF3F00"/>
<stop offset="1" stop-color="#FF0047"/>
</linearGradient>
<linearGradient id="paint8_linear" x1="4.20582" y1="208.451" x2="6.23059" y2="244.778" gradientUnits="userSpaceOnUse">
<stop stop-color="#FF3F00"/>
<stop offset="1" stop-color="#FF0047"/>
</linearGradient>
<linearGradient id="paint9_linear" x1="1.43454e-06" y1="252.508" x2="8.30065" y2="287.933" gradientUnits="userSpaceOnUse">
<stop stop-color="#FF3F00"/>
<stop offset="1" stop-color="#FF0047"/>
</linearGradient>
<linearGradient id="paint10_linear" x1="3.52905" y1="297.095" x2="17.8532" y2="330.541" gradientUnits="userSpaceOnUse">
<stop stop-color="#FF3F00"/>
<stop offset="1" stop-color="#FF0047"/>
</linearGradient>
<linearGradient id="paint11_linear" x1="14.6603" y1="340.03" x2="34.5756" y2="370.48" gradientUnits="userSpaceOnUse">
<stop stop-color="#FF3F00"/>
<stop offset="1" stop-color="#FF0047"/>
</linearGradient>
<linearGradient id="paint12_linear" x1="33.0013" y1="380.582" x2="57.902" y2="407.109" gradientUnits="userSpaceOnUse">
<stop stop-color="#FF3F00"/>
<stop offset="1" stop-color="#FF0047"/>
</linearGradient>
<linearGradient id="paint13_linear" x1="58.2633" y1="417.135" x2="87.3925" y2="438.934" gradientUnits="userSpaceOnUse">
<stop stop-color="#FF3F00"/>
<stop offset="1" stop-color="#FF0047"/>
</linearGradient>
<linearGradient id="paint14_linear" x1="89.5629" y1="448.723" x2="122.034" y2="465.136" gradientUnits="userSpaceOnUse">
<stop stop-color="#FF3F00"/>
<stop offset="1" stop-color="#FF0047"/>
</linearGradient>
<linearGradient id="paint15_linear" x1="125.52" y1="474.445" x2="160.348" y2="484.969" gradientUnits="userSpaceOnUse">
<stop stop-color="#FF3F00"/>
<stop offset="1" stop-color="#FF0047"/>
</linearGradient>
<linearGradient id="paint16_linear" x1="165.523" y1="493.665" x2="201.65" y2="497.98" gradientUnits="userSpaceOnUse">
<stop stop-color="#FF3F00"/>
<stop offset="1" stop-color="#FF0047"/>
</linearGradient>
<linearGradient id="paint17_linear" x1="208.547" y1="505.651" x2="244.874" y2="503.626" gradientUnits="userSpaceOnUse">
<stop stop-color="#FF3F00"/>
<stop offset="1" stop-color="#FF0047"/>
</linearGradient>
<linearGradient id="paint18_linear" x1="252.554" y1="510" x2="287.978" y2="501.7" gradientUnits="userSpaceOnUse">
<stop stop-color="#FF3F00"/>
<stop offset="1" stop-color="#FF0047"/>
</linearGradient>
<linearGradient id="paint19_linear" x1="296.948" y1="506.243" x2="330.393" y2="491.918" gradientUnits="userSpaceOnUse">
<stop stop-color="#FF3F00"/>
<stop offset="1" stop-color="#FF0047"/>
</linearGradient>
<linearGradient id="paint20_linear" x1="339.851" y1="495.252" x2="370.301" y2="475.336" gradientUnits="userSpaceOnUse">
<stop stop-color="#FF3F00"/>
<stop offset="1" stop-color="#FF0047"/>
</linearGradient>
<linearGradient id="paint21_linear" x1="380.352" y1="476.891" x2="406.879" y2="451.991" gradientUnits="userSpaceOnUse">
<stop stop-color="#FF3F00"/>
<stop offset="1" stop-color="#FF0047"/>
</linearGradient>
<linearGradient id="paint22_linear" x1="417.099" y1="451.738" x2="438.898" y2="422.609" gradientUnits="userSpaceOnUse">
<stop stop-color="#FF3F00"/>
<stop offset="1" stop-color="#FF0047"/>
</linearGradient>
<linearGradient id="paint23_linear" x1="448.72" y1="420.473" x2="465.133" y2="388.002" gradientUnits="userSpaceOnUse">
<stop stop-color="#FF3F00"/>
<stop offset="1" stop-color="#FF0047"/>
</linearGradient>
<linearGradient id="paint24_linear" x1="474.693" y1="384.463" x2="485.217" y2="349.635" gradientUnits="userSpaceOnUse">
<stop stop-color="#FF3F00"/>
<stop offset="1" stop-color="#FF0047"/>
</linearGradient>
<linearGradient id="paint25_linear" x1="493.849" y1="344.391" x2="498.164" y2="308.264" gradientUnits="userSpaceOnUse">
<stop stop-color="#FF3F00"/>
<stop offset="1" stop-color="#FF0047"/>
</linearGradient>
<linearGradient id="paint26_linear" x1="505.881" y1="301.6" x2="503.856" y2="265.273" gradientUnits="userSpaceOnUse">
<stop stop-color="#FF3F00"/>
<stop offset="1" stop-color="#FF0047"/>
</linearGradient>
<linearGradient id="paint27_linear" x1="510" y1="257.401" x2="501.699" y2="221.977" gradientUnits="userSpaceOnUse">
<stop stop-color="#FF3F00"/>
<stop offset="1" stop-color="#FF0047"/>
</linearGradient>
<linearGradient id="paint28_linear" x1="506.386" y1="212.956" x2="492.062" y2="179.511" gradientUnits="userSpaceOnUse">
<stop stop-color="#FF3F00"/>
<stop offset="1" stop-color="#FF0047"/>
</linearGradient>
<linearGradient id="paint29_linear" x1="495.381" y1="169.927" x2="475.466" y2="139.477" gradientUnits="userSpaceOnUse">
<stop stop-color="#FF3F00"/>
<stop offset="1" stop-color="#FF0047"/>
</linearGradient>
<linearGradient id="paint30_linear" x1="477.021" y1="129.463" x2="452.12" y2="102.935" gradientUnits="userSpaceOnUse">
<stop stop-color="#FF3F00"/>
<stop offset="1" stop-color="#FF0047"/>
</linearGradient>
<linearGradient id="paint31_linear" x1="451.82" y1="92.8553" x2="422.691" y2="71.0557" gradientUnits="userSpaceOnUse">
<stop stop-color="#FF3F00"/>
<stop offset="1" stop-color="#FF0047"/>
</linearGradient>
<linearGradient id="paint32_linear" x1="420.52" y1="61.1967" x2="388.049" y2="44.784" gradientUnits="userSpaceOnUse">
<stop stop-color="#FF3F00"/>
<stop offset="1" stop-color="#FF0047"/>
</linearGradient>
<linearGradient id="paint33_linear" x1="384.504" y1="35.4206" x2="349.676" y2="24.8966" gradientUnits="userSpaceOnUse">
<stop stop-color="#FF3F00"/>
<stop offset="1" stop-color="#FF0047"/>
</linearGradient>
<linearGradient id="paint34_linear" x1="344.518" y1="16.2887" x2="308.391" y2="11.9736" gradientUnits="userSpaceOnUse">
<stop stop-color="#FF3F00"/>
<stop offset="1" stop-color="#FF0047"/>
</linearGradient>
<linearGradient id="paint35_linear" x1="301.646" y1="4.25757" x2="265.319" y2="6.28233" gradientUnits="userSpaceOnUse">
<stop stop-color="#FF3F00"/>
<stop offset="1" stop-color="#FF0047"/>
</linearGradient>
</defs>
</svg>
