<svg width="118" height="26" viewBox="0 0 118 26" fill="none" xmlns="http://www.w3.org/2000/svg">
<path d="M55.3423 25.5041V7.26257H59.4052V25.5041H55.3423Z" fill="white"/>
<path d="M24.7164 6.83557C22.8218 6.83557 20.9697 7.39758 19.3945 8.45058C17.8192 9.50353 16.5914 11.0002 15.8664 12.7512C15.1415 14.5022 14.9519 16.4289 15.3216 18.2877C15.6914 20.1465 16.6038 21.8539 17.9436 23.1939C19.2835 24.5339 20.9904 25.4464 22.8487 25.8159C24.7069 26.1855 26.633 25.9955 28.3833 25.27C30.1336 24.5445 31.6296 23.3161 32.6819 21.74C33.7342 20.164 34.2957 18.3113 34.2954 16.4161C34.2954 15.1578 34.0476 13.9118 33.5662 12.7493C33.0848 11.5869 32.3792 10.5307 31.4897 9.64102C30.6002 8.75136 29.5442 8.04574 28.382 7.56434C27.2199 7.08298 25.9743 6.83537 24.7164 6.83557ZM24.7164 22.3458C23.544 22.3458 22.3979 21.9981 21.4231 21.3465C20.4483 20.6949 19.6885 19.7688 19.2398 18.6853C18.7912 17.6018 18.6738 16.4095 18.9025 15.2592C19.1312 14.1089 19.6958 13.0523 20.5248 12.223C21.3538 11.3937 22.4101 10.829 23.56 10.6002C24.7099 10.3714 25.9018 10.4888 26.9849 10.9376C28.0681 11.3864 28.9939 12.1465 29.6452 13.1216C30.2966 14.0968 30.6443 15.2433 30.6443 16.4161C30.6443 17.9887 30.0197 19.497 28.908 20.609C27.7963 21.7211 26.2886 22.3458 24.7164 22.3458Z" fill="white"/>
<path d="M104.566 6.83557C102.671 6.83527 100.819 7.39697 99.2436 8.44976C97.6679 9.50251 96.44 10.999 95.7147 12.75C94.9895 14.501 94.7997 16.4278 95.1695 18.2867C95.5388 20.1456 96.4512 21.8531 97.7909 23.1933C99.1306 24.5335 100.838 25.4462 102.696 25.8158C104.554 26.1855 106.48 25.9956 108.231 25.2701C109.981 24.5447 111.477 23.3163 112.53 21.7402C113.582 20.1642 114.144 18.3114 114.143 16.416C114.143 13.8753 113.133 11.4387 111.338 9.64209C109.542 7.84554 107.106 6.83603 104.566 6.83557ZM104.566 22.3458C103.393 22.3458 102.247 21.9981 101.273 21.3465C100.298 20.6949 99.5381 19.7688 99.0895 18.6853C98.6408 17.6017 98.5234 16.4094 98.7522 15.2592C98.9806 14.1089 99.5452 13.0523 100.374 12.223C101.203 11.3937 102.26 10.829 103.41 10.6002C104.56 10.3714 105.751 10.4888 106.835 10.9376C107.918 11.3864 108.843 12.1465 109.495 13.1216C110.146 14.0968 110.494 15.2432 110.494 16.416C110.494 17.1948 110.341 17.966 110.043 18.6855C109.745 19.405 109.309 20.0589 108.758 20.6095C108.207 21.1602 107.554 21.597 106.835 21.8949C106.116 22.1928 105.344 22.3461 104.566 22.3458Z" fill="white"/>
<path d="M57.3758 5.2938C58.8371 5.2938 60.0222 4.10874 60.0222 2.6469C60.0222 1.18505 58.8371 0 57.3758 0C55.9146 0 54.73 1.18505 54.73 2.6469C54.73 4.10874 55.9146 5.2938 57.3758 5.2938Z" fill="white"/>
<path d="M49.9963 20.2525C49.2102 21.1765 48.1596 21.8371 46.9863 22.1451C45.813 22.4531 44.5735 22.3935 43.4351 21.9746C42.2967 21.5556 41.3141 20.7974 40.6201 19.8023C39.9261 18.8071 39.5539 17.6229 39.5539 16.4095C39.5539 15.1961 39.9261 14.0119 40.6201 13.0167C41.3141 12.0215 42.2967 11.2633 43.4351 10.8443C44.5735 10.4254 45.813 10.3659 46.9863 10.6739C48.1596 10.9818 49.2102 11.6424 49.9963 12.5665L52.774 10.2047C51.5035 8.71138 49.8059 7.64385 47.9099 7.14618C46.0139 6.64851 44.011 6.74466 42.1714 7.42163C40.3317 8.09864 38.744 9.32386 37.6225 10.932C36.501 12.5402 35.8997 14.4538 35.8997 16.4146C35.8997 18.3753 36.501 20.2889 37.6225 21.897C38.744 23.5052 40.3317 24.7304 42.1714 25.4075C44.011 26.0844 46.0139 26.1806 47.9099 25.6829C49.8059 25.1852 51.5035 24.1177 52.774 22.6244L49.9963 20.2525Z" fill="white"/>
<path d="M87.1065 25.5041H83.4551V15.5694C83.4581 13.3671 84.3335 11.2558 85.8904 9.69852C87.4472 8.14132 89.558 7.26528 91.7593 7.26257H94.6264V10.9166H91.7593C90.5259 10.9184 89.3434 11.4094 88.4711 12.2818C87.5988 13.1543 87.108 14.3372 87.1065 15.5711V25.5041Z" fill="white"/>
<path d="M10.7443 11.8173C10.265 11.3566 9.7114 10.9801 9.1068 10.7039C8.5343 10.4384 7.91292 10.2948 7.28202 10.2822C6.45908 10.2822 5.80697 10.4728 5.32577 10.854C4.84458 11.2353 4.60454 11.6812 4.60567 12.1918C4.60449 12.4557 4.66668 12.716 4.78701 12.9509C4.90733 13.1857 5.08226 13.3882 5.29708 13.5414C5.81598 13.9315 6.40867 14.2122 7.03921 14.3664C7.73739 14.5542 8.48898 14.7881 9.29397 15.0681C10.0678 15.3356 10.8243 15.6511 11.5589 16.0129C12.2801 16.3775 12.8861 16.9353 13.3094 17.6239C13.7886 18.4125 14.0288 19.3232 14.0009 20.2456C14.0009 21.8302 13.3617 23.1843 12.0834 24.3078C10.805 25.4313 9.1422 25.9937 7.09485 25.9948C6.22577 25.9984 5.36015 25.8849 4.52135 25.6574C3.81797 25.4797 3.14139 25.2091 2.50942 24.8527C2.02857 24.5707 1.56866 24.2545 1.13328 23.9063C0.732587 23.5396 0.354154 23.1492 0 22.7372L2.49087 20.2523C2.61567 20.421 3.27844 21.2308 4.6141 21.9275C5.37739 22.3362 6.22913 22.5517 7.09485 22.555C8.11794 22.555 8.8853 22.3459 9.39682 21.9275C9.64563 21.727 9.8443 21.4711 9.9769 21.1803C10.1095 20.8894 10.1725 20.5717 10.1608 20.2523C10.162 19.9896 10.0996 19.7306 9.97888 19.4973C9.85814 19.264 9.68277 19.0635 9.46767 18.9128C8.94659 18.5278 8.35542 18.2482 7.72727 18.0896C7.02909 17.895 6.2775 17.6577 5.4725 17.3777C4.69991 17.1101 3.94365 16.7975 3.20761 16.4414C2.48381 16.0804 1.87692 15.5218 1.45709 14.8303C0.978484 14.0384 0.7384 13.1252 0.765642 12.2002C0.765642 10.7899 1.384 9.54157 2.62072 8.45513C3.85745 7.36868 5.40786 6.82605 7.27195 6.82717C7.99394 6.82559 8.71359 6.91052 9.41538 7.08024C10.0023 7.21064 10.5694 7.41824 11.1018 7.69766C11.5039 7.9183 11.8889 8.16867 12.2537 8.44671C12.591 8.70141 13.2166 9.33571 13.2166 9.33571L10.7443 11.8173Z" fill="white"/>
<path d="M80.8819 16.3722C80.8839 14.3029 80.2171 12.2884 78.9806 10.6293C77.7442 8.97022 76.0047 7.75556 74.0216 7.16664C72.0385 6.57766 69.9185 6.64597 67.9771 7.36143C66.0362 8.07684 64.3786 9.40095 63.2515 11.1362C62.1244 12.8714 61.5889 14.9247 61.7242 16.9895C61.8595 19.0545 62.6585 21.0202 64.0023 22.5934C65.346 24.1666 67.1623 25.263 69.18 25.7188C71.1982 26.1746 73.309 25.9655 75.1985 25.1226V20.8478C74.1793 21.74 72.8853 22.2563 71.5324 22.3107C70.1795 22.3652 68.8484 21.9545 67.761 21.1469C66.6735 20.3395 65.8954 19.1839 65.5556 17.8725C65.2164 16.561 65.3359 15.1729 65.8948 13.9389C66.4533 12.7049 67.4177 11.6995 68.6272 11.09C69.8367 10.4805 71.2181 10.3036 72.542 10.5888C73.8659 10.874 75.0526 11.604 75.904 12.6575C76.7554 13.7109 77.2203 15.0242 77.2223 16.3789V23.8962V25.5039H80.8936V16.3722H80.8819Z" fill="white"/>
</svg>
