<svg width="141" height="32" viewBox="0 0 141 32" fill="none" xmlns="http://www.w3.org/2000/svg">
<path d="M68.136 31.3896V8.93851H73.1378V31.3896H68.136Z" fill="black"/>
<path d="M30.4303 8.41318C28.0977 8.41318 25.8175 9.1049 23.878 10.4009C21.9386 11.6968 20.427 13.5388 19.5344 15.6939C18.6419 17.849 18.4084 20.2204 18.8637 22.5081C19.3189 24.7959 20.4423 26.8973 22.0918 28.5465C23.7414 30.1958 25.843 31.3188 28.1308 31.7736C30.4186 32.2284 32.79 31.9946 34.9449 31.1017C37.0998 30.2087 38.9416 28.6968 40.2372 26.7571C41.5328 24.8174 42.2241 22.5371 42.2237 20.2045C42.2237 18.6559 41.9186 17.1224 41.3259 15.6917C40.7332 14.261 39.8645 12.961 38.7694 11.866C37.6742 10.7711 36.3741 9.90259 34.9433 9.31014C33.5125 8.71769 31.9789 8.4129 30.4303 8.41318ZM30.4303 27.5027C28.9869 27.5027 27.5758 27.0747 26.3756 26.2727C25.1754 25.4708 24.24 24.331 23.6876 22.9974C23.1353 21.6638 22.9907 20.1964 23.2723 18.7807C23.5539 17.365 24.249 16.0646 25.2697 15.0439C26.2904 14.0232 27.5908 13.3281 29.0065 13.0465C30.4222 12.7649 31.8896 12.9095 33.2232 13.4618C34.5568 14.0142 35.6966 14.9497 36.4985 16.1498C37.3005 17.35 37.7285 18.7611 37.7285 20.2045C37.7285 22.1401 36.9596 23.9964 35.5909 25.3651C34.2222 26.7338 32.3659 27.5027 30.4303 27.5027Z" fill="black"/>
<path d="M128.739 8.41318C126.406 8.41277 124.126 9.10414 122.186 10.3999C120.247 11.6956 118.735 13.5374 117.842 15.6925C116.949 17.8475 116.715 20.219 117.17 22.5069C117.625 24.7947 118.748 26.8963 120.398 28.5458C122.047 30.1952 124.149 31.3185 126.437 31.7735C128.725 32.2285 131.096 31.9947 133.251 31.1019C135.406 30.209 137.248 28.6971 138.544 26.7573C139.84 24.8176 140.531 22.5372 140.53 20.2045C140.53 17.0774 139.287 14.0786 137.076 11.8674C134.865 9.6562 131.866 8.41373 128.739 8.41318ZM128.739 27.5027C127.296 27.5027 125.885 27.0747 124.684 26.2727C123.484 25.4708 122.549 24.331 121.996 22.9974C121.444 21.6638 121.3 20.1964 121.581 18.7807C121.863 17.365 122.558 16.0646 123.579 15.0439C124.599 14.0232 125.9 13.3281 127.315 13.0465C128.731 12.7649 130.198 12.9095 131.532 13.4618C132.866 14.0142 134.005 14.9497 134.807 16.1498C135.609 17.35 136.037 18.7611 136.037 20.2045C136.038 21.163 135.849 22.1122 135.482 22.9977C135.116 23.8833 134.578 24.688 133.9 25.3657C133.223 26.0435 132.418 26.5811 131.532 26.9477C130.647 27.3144 129.698 27.503 128.739 27.5027Z" fill="black"/>
<path d="M70.64 6.51544C72.4392 6.51544 73.8977 5.05691 73.8977 3.25772C73.8977 1.45853 72.4392 0 70.64 0C68.8408 0 67.3823 1.45853 67.3823 3.25772C67.3823 5.05691 68.8408 6.51544 70.64 6.51544Z" fill="black"/>
<path d="M61.5541 24.926C60.5863 26.0634 59.2928 26.8764 57.8483 27.2555C56.4037 27.6345 54.8777 27.5612 53.4761 27.0456C52.0745 26.53 50.8649 25.5967 50.0104 24.3719C49.1559 23.1471 48.6978 21.6896 48.6978 20.1962C48.6978 18.7028 49.1559 17.2453 50.0104 16.0205C50.8649 14.7957 52.0745 13.8625 53.4761 13.3468C54.8777 12.8312 56.4037 12.7579 57.8483 13.137C59.2928 13.516 60.5863 14.329 61.5541 15.4664L64.9738 12.5596C63.4098 10.7216 61.3196 9.40774 58.9854 8.79522C56.6511 8.1827 54.1851 8.30103 51.9202 9.13425C49.6554 9.96747 47.7006 11.4755 46.3198 13.4547C44.939 15.4339 44.1987 17.7891 44.1987 20.2024C44.1987 22.6157 44.939 24.9709 46.3198 26.9502C47.7006 28.9294 49.6554 30.4374 51.9202 31.2706C54.1851 32.1038 56.6511 32.2222 58.9854 31.6096C61.3196 30.9971 63.4098 29.6832 64.9738 27.8453L61.5541 24.926Z" fill="black"/>
<path d="M107.243 31.3896H102.748V19.1622C102.751 16.4517 103.829 13.8532 105.746 11.9366C107.663 10.02 110.261 8.9418 112.972 8.93851H116.501V13.4358H112.972C111.453 13.438 109.997 14.0422 108.923 15.1161C107.85 16.1899 107.245 17.6457 107.243 19.1643V31.3896Z" fill="black"/>
<path d="M13.2281 14.5445C12.6381 13.9775 11.9564 13.5142 11.212 13.1742C10.5072 12.8474 9.74221 12.6706 8.96548 12.6551C7.95224 12.6551 7.14941 12.8897 6.55697 13.359C5.96453 13.8282 5.669 14.377 5.67039 15.0055C5.66894 15.3303 5.7455 15.6507 5.89364 15.9397C6.04178 16.2288 6.25715 16.478 6.52166 16.6665C7.16048 17.1467 7.89017 17.4921 8.66649 17.6818C9.52608 17.913 10.4514 18.2009 11.4425 18.5456C12.3953 18.8747 13.3266 19.2631 14.231 19.7083C15.119 20.1571 15.8651 20.8436 16.3862 21.6912C16.9761 22.6617 17.2719 23.7825 17.2375 24.9178C17.2375 26.8681 16.4506 28.5347 14.8767 29.9175C13.3029 31.3003 11.2556 31.9924 8.73501 31.9938C7.66502 31.9982 6.5993 31.8585 5.56657 31.5785C4.70059 31.3598 3.8676 31.0267 3.08954 30.5881C2.49753 30.2411 1.9313 29.8518 1.39527 29.4233C0.901942 28.9719 0.436026 28.4914 0 27.9844L3.0667 24.9261C3.22035 25.1337 4.03633 26.1303 5.68076 26.9878C6.62049 27.4908 7.66913 27.756 8.73501 27.7602C9.99464 27.7602 10.9393 27.5027 11.5692 26.9878C11.8755 26.741 12.12 26.4261 12.2833 26.0682C12.4466 25.7103 12.5241 25.3192 12.5097 24.9261C12.5112 24.6028 12.4343 24.2839 12.2857 23.9968C12.1371 23.7097 11.9212 23.4629 11.6564 23.2775C11.0148 22.8036 10.287 22.4594 9.51363 22.2642C8.65404 22.0248 7.7287 21.7327 6.73761 21.388C5.78641 21.0587 4.85533 20.6739 3.94913 20.2357C3.05801 19.7913 2.31081 19.1039 1.79393 18.2528C1.20469 17.2782 0.909099 16.1543 0.942637 15.0159C0.942637 13.2801 1.70395 11.7436 3.22657 10.4065C4.74919 9.06932 6.65801 8.40144 8.95302 8.40283C9.84196 8.40086 10.7279 8.50542 11.592 8.71427C12.3146 8.87477 13.0128 9.13029 13.6683 9.4742C14.1633 9.74574 14.6373 10.0539 15.0864 10.3961C15.5017 10.7096 16.272 11.4903 16.272 11.4903L13.2281 14.5445Z" fill="black"/>
<path d="M99.5795 20.1505C99.5822 17.6037 98.7612 15.1243 97.2391 13.0823C95.717 11.0404 93.5753 9.54545 91.1338 8.82058C88.6923 8.09571 86.0819 8.1798 83.6921 9.06031C81.3023 9.94082 79.2613 11.5705 77.8738 13.7062C76.4862 15.8419 75.8265 18.369 75.9931 20.9103C76.1597 23.4517 77.1436 25.8711 78.7981 27.8074C80.4525 29.7437 82.6888 31.093 85.173 31.654C87.6573 32.2151 90.2564 31.9577 92.5824 30.9203V25.659C91.3278 26.7571 89.7349 27.3925 88.069 27.4595C86.403 27.5264 84.7643 27.021 83.4256 26.0271C82.0868 25.0333 81.1287 23.6111 80.7107 21.997C80.2926 20.3829 80.4399 18.6744 81.1279 17.1556C81.8158 15.6369 83.0031 14.3995 84.4922 13.6493C85.9812 12.8992 87.6822 12.6815 89.3121 13.0325C90.9421 13.3835 92.4028 14.282 93.451 15.5786C94.4993 16.8751 95.0721 18.4915 95.074 20.1588V29.4108V31.3896H99.5941V20.1505H99.5795Z" fill="black"/>
</svg>
