<svg width="36" height="57" viewBox="0 0 36 57" fill="none" xmlns="http://www.w3.org/2000/svg">
<path d="M17.9998 0C8.05963 0 0 8.05881 0 18.0006C0 28.4804 14.0184 43.8272 17.3127 47.2889C17.6934 47.6889 18.3086 47.6907 18.6918 47.2929C21.995 43.8639 35.9996 28.6956 35.9996 18.0006C35.9996 8.05881 27.94 0 17.9998 0Z" fill="#FF0047"/>
<path fill-rule="evenodd" clip-rule="evenodd" d="M18.1367 25.0987C14.7475 25.0987 11.9999 22.3512 11.9999 18.9619C11.9999 15.5727 14.7475 12.8252 18.1367 12.8252C21.5259 12.8252 24.2734 15.5727 24.2734 18.9619C24.2734 22.3512 21.5259 25.0987 18.1367 25.0987ZM18.1365 22.9642C15.9261 22.9642 14.1342 21.1723 14.1342 18.9619C14.1342 16.7516 15.9261 14.9597 18.1365 14.9597C20.3468 14.9597 22.1387 16.7516 22.1387 18.9619C22.1387 21.1723 20.3468 22.9642 18.1365 22.9642Z" fill="white"/>
<ellipse opacity="0.25" cx="18" cy="55.5" rx="10" ry="1.5" fill="#FF0047"/>
</svg>
