<svg width="126" height="40" viewBox="0 0 126 40" fill="none" xmlns="http://www.w3.org/2000/svg">
<path fill-rule="evenodd" clip-rule="evenodd" d="M33.7142 32.5454C33.4406 34.5767 32.0737 36.3344 30.1593 37.1156C29.222 37.5061 28.2063 37.6232 27.1905 37.5061C26.2143 37.3891 25.2375 37.0766 24.2218 36.4905C22.8159 35.7094 21.4096 34.4987 19.7687 32.7019C22.3468 29.5379 23.9097 26.648 24.4954 24.0701C24.7689 22.8589 24.8079 21.7652 24.6909 20.75C24.5344 19.7734 24.1828 18.8748 23.6361 18.0937C22.4248 16.3364 20.3938 15.3207 18.1283 15.3207C15.8627 15.3207 13.8312 16.3754 12.6204 18.0937C12.0733 18.8748 11.7217 19.7734 11.5656 20.75C11.4096 21.7652 11.4486 22.8979 11.7612 24.0701C12.3468 26.648 13.9487 29.5769 16.4874 32.7409C14.886 34.5377 13.4406 35.7484 12.0343 36.5295C11.019 37.1156 10.0423 37.4281 9.06552 37.5451C8.01076 37.6622 6.99549 37.5061 6.09678 37.1546C4.1828 36.3735 2.81546 34.6157 2.54238 32.5849C2.42486 31.6082 2.50336 30.6316 2.89396 29.5379C3.011 29.1474 3.20654 28.7568 3.4016 28.2882C3.67516 27.6631 3.98773 26.999 4.29983 26.3354L4.33932 26.2569C7.0345 20.4375 9.92522 14.5006 12.933 8.7197L13.05 8.48518C13.3626 7.89957 13.6752 7.27448 13.9877 6.6884C14.2998 6.06379 14.6514 5.47771 15.0815 4.97012C15.9017 4.03249 16.9955 3.5249 18.2063 3.5249C19.4171 3.5249 20.5109 4.03249 21.3311 4.97012C21.7612 5.47771 22.1128 6.06379 22.4249 6.6884C22.7374 7.27448 23.05 7.89957 23.3626 8.48518L23.4796 8.7197C26.4483 14.5396 29.3391 20.4765 32.0347 26.2964V26.3354C32.3468 26.96 32.6204 27.6631 32.933 28.2882C33.128 28.7568 33.3236 29.1474 33.4406 29.5379C33.7532 30.5536 33.8707 31.5302 33.7142 32.5454ZM18.1283 30.7101C16.0188 28.0537 14.6515 25.5543 14.1829 23.445C13.9878 22.5464 13.9488 21.7653 14.0658 21.0621C14.1439 20.4375 14.3784 19.8905 14.691 19.4219C15.4332 18.3672 16.683 17.7031 18.1283 17.7031C19.5737 17.7031 20.8625 18.3282 21.5657 19.4219C21.8783 19.8905 22.1128 20.4375 22.1909 21.0621C22.3079 21.7653 22.2689 22.5854 22.0733 23.445C21.6047 25.5148 20.2379 28.0147 18.1283 30.7101ZM35.7452 28.679C35.5501 28.2105 35.355 27.7024 35.1595 27.2728C34.8469 26.5697 34.5344 25.9061 34.2608 25.281L34.2218 25.242C31.5266 19.3831 28.6359 13.4462 25.5891 7.58729L25.4721 7.35276C25.1595 6.76716 24.8469 6.14207 24.5344 5.51698C24.1438 4.81387 23.7532 4.07176 23.128 3.36913C21.8782 1.80641 20.0813 0.947266 18.1673 0.947266C16.2143 0.947266 14.4563 1.80641 13.167 3.29063C12.5814 3.99374 12.1518 4.73586 11.7612 5.43896C11.4486 6.06405 11.136 6.68866 10.8234 7.27474L10.7064 7.50927C7.69865 13.3682 4.76893 19.3051 2.07327 25.1635L2.03426 25.242C1.76117 25.8666 1.4486 26.5307 1.13602 27.2338C0.940487 27.6634 0.745426 28.132 0.549889 28.64C0.0422531 30.0853 -0.113796 31.452 0.0812654 32.8582C0.510876 35.7876 2.46387 38.2485 5.15952 39.3422C6.1748 39.7717 7.22956 39.9673 8.32333 39.9673C8.6359 39.9673 9.0265 39.9278 9.33907 39.8888C10.6284 39.7327 11.9562 39.3032 13.2455 38.5611C14.8469 37.6624 16.3703 36.3737 18.0892 34.4989C19.8077 36.3737 21.3706 37.6624 22.933 38.5611C24.2218 39.3032 25.5501 39.7327 26.8389 39.8888C27.1515 39.9278 27.5421 39.9673 27.8547 39.9673C28.9485 39.9673 30.0422 39.7717 31.019 39.3422C33.7532 38.2485 35.6671 35.7486 36.0968 32.8582C36.4093 31.4915 36.2533 30.1243 35.7452 28.679ZM74.6909 14.9302C75.8237 14.9302 76.4099 15.1252 76.4099 15.1252V18.6017C76.4099 18.6017 73.2846 17.5471 71.3316 19.7734V30.046H67.5817V15.3207C67.5817 15.3207 70.4719 15.3207 70.7455 15.3207C71.058 15.3207 71.2926 15.5943 71.2926 15.8673V16.4924C71.9958 15.6723 73.5191 14.9302 74.6909 14.9302ZM84.8469 26.843C83.4016 26.843 82.2688 26.1009 81.6831 25.2418V20.008C82.2688 19.2264 83.5191 18.4062 84.8469 18.4062C87.347 18.4062 89.261 19.9685 89.261 22.6249C89.261 25.2808 87.347 26.843 84.8469 26.843ZM85.4721 14.9305C82.894 14.9305 81.6832 16.4927 81.6832 16.4927V8.25146H77.9332V30.0073C77.9332 30.0073 80.8235 30.0073 81.097 30.0073C81.4096 30.0073 81.6441 29.7338 81.6441 29.4602V28.7961C81.6441 28.7961 82.855 30.3979 85.4331 30.3979C89.6907 30.3979 93.011 27.1169 93.011 22.6642C93.0505 18.2115 89.7302 14.9305 85.4721 14.9305ZM108.011 21.2967V30.046H104.261V21.7262C104.261 19.3048 103.48 18.3282 101.371 18.3282C100.238 18.3282 99.0659 18.9143 98.3238 19.7734V30.007H94.5739V15.3207H97.5426C97.8551 15.3207 98.0892 15.5943 98.0892 15.8673V16.4924C99.183 15.3597 100.628 14.9302 102.074 14.9302C103.714 14.9302 105.081 15.3988 106.175 16.3364C107.503 17.4301 108.011 18.8358 108.011 21.2967ZM116.878 26.843C115.433 26.843 114.3 26.1009 113.714 25.2418V20.008C114.3 19.2264 115.55 18.4062 116.878 18.4062C119.379 18.4062 121.292 19.9685 121.292 22.6249C121.292 25.2808 119.379 26.843 116.878 26.843ZM117.504 14.9305C114.925 14.9305 113.714 16.4927 113.714 16.4927V8.25146H109.964V30.0073C109.964 30.0073 112.855 30.0073 113.129 30.0073C113.441 30.0073 113.675 29.7338 113.675 29.4602V28.7961C113.675 28.7961 114.886 30.3979 117.465 30.3979C121.722 30.3979 125.042 27.1169 125.042 22.6642C125.042 18.2115 121.722 14.9305 117.504 14.9305ZM61.4877 15.3208H65.2376V30.0071H61.4877V15.3208ZM55.4331 25.2809C54.847 26.14 53.6752 26.8821 52.2688 26.8821C49.7687 26.8821 47.8547 25.3199 47.8547 22.6639C47.8547 20.008 49.7687 18.4453 52.2688 18.4453C53.6362 18.4453 54.886 19.2264 55.4331 20.047V25.2809ZM55.4331 15.8673C55.4331 16.1019 55.4331 16.4924 55.4331 16.4924C55.4331 16.4924 54.2218 14.9302 51.6442 14.9302C47.3861 14.9302 44.0658 18.1722 44.0658 22.6639C44.0658 27.1166 47.3471 30.3976 51.6442 30.3976C54.2613 30.3976 55.4331 28.7958 55.4331 28.7958V29.4599C55.4331 29.7725 55.6672 30.007 55.9798 30.007H59.1441V15.3207C59.1441 15.3207 56.2533 15.3207 55.9798 15.3207C55.6672 15.3207 55.4331 15.5943 55.4331 15.8673ZM65.9017 10.7508C65.9017 12.157 64.769 13.2897 63.3626 13.2897C61.9563 13.2897 60.8235 12.157 60.8235 10.7508C60.8235 9.34508 61.9173 8.2124 63.3626 8.2124C64.808 8.25141 65.9017 9.38409 65.9017 10.7508Z" fill="#030303"/>
</svg>
