<svg width="161" height="33" viewBox="0 0 161 33" fill="none" xmlns="http://www.w3.org/2000/svg">
<path fill-rule="evenodd" clip-rule="evenodd" d="M12.1104 18.9174C12.3532 19.0444 12.664 19.0313 12.8797 18.8429L12.8871 18.85C13.5373 18.2855 14.7196 17.2834 15.3846 16.7391C15.6499 16.5282 15.603 16.1844 15.3951 15.8954C15.3315 15.8096 15.2674 15.7255 15.2037 15.6419C14.6714 14.9434 14.1659 14.28 14.1659 12.9502V7.99906C14.1659 7.8286 14.1669 7.65928 14.1679 7.49125C14.1792 5.59085 14.1895 3.8568 12.7344 2.52959C11.485 1.36012 9.41331 0.947266 7.82955 0.947266C4.73011 0.947266 1.27197 2.07634 0.546772 5.81316C0.469516 6.21031 0.766124 6.41853 1.03284 6.47732L4.18931 6.81075C4.48454 6.79594 4.69838 6.51277 4.75494 6.22691C5.02579 4.93942 6.13038 4.31834 7.37245 4.31834C8.04247 4.31834 8.80399 4.55888 9.20039 5.14406C9.60971 5.72974 9.60335 6.50906 9.59764 7.20921C9.59698 7.29015 9.59633 7.37003 9.59633 7.44843V7.86129C9.30339 7.89331 8.99651 7.92367 8.68047 7.95493C6.95894 8.12522 4.96559 8.32239 3.47285 8.96165C1.432 9.82192 0 11.5761 0 14.1565C0 17.458 2.13236 19.1094 4.8745 19.1094C7.18943 19.1094 8.45588 18.5763 10.2434 16.7988C10.3334 16.9261 10.4143 17.0434 10.4905 17.1539C10.9143 17.7688 11.1932 18.1733 12.1104 18.9174ZM55.2581 18.8429C55.0419 19.0313 54.732 19.0444 54.4883 18.9174C53.571 18.1727 53.2923 17.7681 52.868 17.1523L52.8679 17.1521C52.7921 17.0421 52.7117 16.9254 52.6222 16.7988C50.8342 18.5763 49.5682 19.1094 47.2529 19.1094C44.5112 19.1094 42.3784 17.458 42.3784 14.1565C42.3784 11.5761 43.8104 9.82192 45.8512 8.96165C47.3444 8.32237 49.3375 8.1252 51.059 7.95491L51.0591 7.9549C51.375 7.92365 51.6818 7.8933 51.9747 7.86129V7.44843C51.9747 7.37015 51.9753 7.2904 51.976 7.20958V7.20921C51.9817 6.50906 51.9881 5.72974 51.5787 5.14406C51.1828 4.55888 50.4208 4.31834 49.7503 4.31834C48.5087 4.31834 47.4046 4.93942 47.1333 6.22691C47.0767 6.51277 46.8629 6.79594 46.5677 6.81075L43.4112 6.47732C43.1445 6.41853 42.8484 6.21031 42.9251 5.81316C43.6508 2.07634 47.1085 0.947266 50.2079 0.947266C51.7921 0.947266 53.8638 1.36012 55.1127 2.52959C56.568 3.85653 56.5576 5.59014 56.5463 7.49009C56.5453 7.6585 56.5443 7.82821 56.5443 7.99906V12.9502C56.5443 14.2797 57.0498 14.943 57.582 15.6413L57.5821 15.6414C57.6459 15.7252 57.7102 15.8094 57.7739 15.8954C57.9813 16.1844 58.0282 16.5282 57.7629 16.7391C57.0975 17.2834 55.9157 18.2855 55.2654 18.85L55.2581 18.8429ZM60.2913 4.7745V2.41179C60.2931 2.05236 60.5696 1.81259 60.9018 1.81259L71.7004 1.81213C72.046 1.81259 72.323 2.05873 72.3239 2.40906L72.323 4.43554C72.3202 4.77541 72.0284 5.21901 71.5102 5.92332L65.9165 13.7558C67.9929 13.7075 70.189 14.0124 72.0753 15.0525C72.5011 15.2868 72.6152 15.6344 72.6487 15.9747V18.4962C72.6487 18.8429 72.2613 19.2455 71.854 19.0367C68.5301 17.3287 64.1194 17.1422 60.4444 19.0572C60.0686 19.2537 59.6757 18.857 59.6757 18.5098V16.1126C59.6757 15.7295 59.6831 15.0734 60.0774 14.4887L66.5576 5.37052L60.9157 5.36961C60.5705 5.36961 60.2941 5.12847 60.2913 4.7745ZM60.1924 22.5109C62.1531 22.273 66.4824 21.7478 67.2559 22.7529C68.0303 23.759 66.3999 27.8978 65.6669 29.7585L65.6625 29.7699C65.4405 30.3304 65.916 30.5572 66.4166 30.1323C69.6681 27.3702 70.5079 21.5841 69.8423 20.7477C69.1812 19.9205 63.4969 19.2053 60.0275 21.6799C59.4941 22.0604 59.5857 22.584 60.1775 22.5127L60.1924 22.5109ZM42.1508 32.9473C49.6684 32.9473 58.3997 30.5959 64.4211 26.1762C65.4177 25.445 64.5643 24.3475 63.546 24.7768C56.7952 27.6256 49.4578 29.0024 42.7836 29.0024C32.8891 29.0024 23.3094 26.3028 15.563 21.8195C14.8853 21.4271 14.3825 22.1196 14.946 22.6255C22.1262 29.074 31.6139 32.9473 42.1508 32.9473ZM17.8716 19.9743H21.0817C21.4234 19.9743 21.7013 19.7066 21.7008 19.3742L21.7022 10.5425L21.702 10.3324C21.6988 8.42629 21.6947 5.94948 23.9196 5.94948C25.9655 5.94948 25.931 8.15792 25.903 9.95398L25.903 9.95416C25.8999 10.1568 25.8968 10.3542 25.8968 10.5425L25.8999 19.3751C25.8999 19.6946 26.1542 19.9527 26.4761 19.9743H29.6825C30.0243 19.9743 30.3017 19.7066 30.3017 19.3742V10.5425C30.3017 10.4711 30.3015 10.397 30.3013 10.3209V10.3205C30.2991 9.38676 30.2962 8.12992 30.6008 7.35182C30.9308 6.5106 31.7399 5.98432 32.5191 5.98432C33.4478 5.98432 34.1667 6.30018 34.4065 7.42196C34.5274 7.96019 34.5115 9.20809 34.501 10.0374V10.0374V10.0375L34.501 10.0378C34.4985 10.2347 34.4963 10.4079 34.4963 10.5425L34.4972 19.3751C34.4972 19.6946 34.7514 19.9527 35.0733 19.9743H38.2793C38.621 19.9743 38.8989 19.7066 38.8989 19.3742L38.9011 8.85961C38.9011 8.60178 38.9055 8.33888 38.9099 8.07352V8.07339V8.07326V8.07314V8.07302V8.0729V8.07278V8.07266C38.936 6.49721 38.9635 4.83531 38.0916 3.63531C37.1932 2.37279 35.7251 1.81213 34.3761 1.81213C32.4887 1.81213 30.7209 2.79363 29.9422 4.89738C29.0429 2.79363 27.7847 1.81213 25.7771 1.81213C23.7995 1.81213 22.3313 2.79363 21.5522 4.89738H21.4923V2.72212C21.4724 2.41818 21.2213 2.17842 20.9085 2.16237L17.9192 2.16329C17.577 2.16329 17.2996 2.42964 17.2996 2.76338L17.2973 19.4251C17.3222 19.7217 17.5665 19.9537 17.8716 19.9743ZM88.2162 11.0306C88.2162 16.0183 85.343 19.9743 80.8047 19.9743C76.0852 19.9743 73.5135 15.9153 73.5135 10.8584C73.5135 5.76766 76.1154 1.81213 80.8047 1.81213C85.6153 1.81213 88.2162 5.8711 88.2162 11.0306ZM78.2934 10.3425C78.2934 8.34741 78.4445 5.14881 80.8349 5.14881C81.8633 5.14881 82.5896 5.59586 82.953 6.73057C83.3759 8.03754 83.4368 9.68901 83.4368 11.0652C83.4368 13.1633 83.3159 16.603 80.8047 16.603C78.2924 16.603 78.2931 12.4334 78.2934 10.411L78.2934 10.3425ZM91.383 19.9743H94.5292C94.8663 19.9743 95.1393 19.7066 95.1447 19.3742V10.4022C95.1447 9.27999 95.204 8.26319 95.6464 7.24638C95.9996 6.44 96.707 5.91418 97.4741 5.91418C99.4864 5.91418 99.4672 8.18052 99.452 9.96344L99.452 9.96574C99.4507 10.1152 99.4495 10.2612 99.4495 10.4022V19.4494C99.4838 19.7332 99.7193 19.9546 100.012 19.9743H103.179C103.49 19.9743 103.748 19.7451 103.784 19.4494V8.96459C103.784 7.35182 103.784 5.1078 102.958 3.7756C102.073 2.33795 100.687 1.81213 99.272 1.81213C97.091 1.81213 95.8529 2.89907 94.9685 5.17748H94.9087V2.62951C94.8507 2.3705 94.6233 2.17658 94.3476 2.16237L91.4178 2.16329C91.0994 2.16329 90.8376 2.40259 90.8108 2.70699L90.8157 19.3751C90.8157 19.6946 91.0664 19.9527 91.383 19.9743ZM106.378 18.2451C106.378 17.2891 107.153 16.5148 108.109 16.5148C109.064 16.5148 109.838 17.2891 109.838 18.2451C109.838 19.1995 109.064 19.9743 108.109 19.9743C107.153 19.9743 106.378 19.1995 106.378 18.2451ZM140.108 19.3786C140.108 19.7026 140.374 19.9634 140.707 19.9743H142.112C142.434 19.9529 142.689 19.6963 142.689 19.3786L142.69 9.83032C142.69 8.36588 142.84 6.93608 143.619 5.78613C144.226 4.87957 145.249 4.10337 146.261 4.04639C147.236 4.0979 148.167 4.74785 148.685 5.75103C149.135 6.6225 149.195 7.7729 149.195 8.74965L149.201 19.3786C149.201 19.7026 149.469 19.9634 149.802 19.9743H151.206C151.5 19.9547 151.738 19.74 151.777 19.4647V10.4224L151.777 10.2564C151.776 8.66347 151.776 7.41167 152.617 6.02997C153.282 4.92014 154.312 4.102 155.433 4.04639C156.438 4.09744 157.372 4.78431 157.862 5.8905C158.294 6.86425 158.289 7.97935 158.283 9.05809V9.05941V9.06071C158.283 9.17829 158.282 9.29543 158.282 9.41191V19.4597C158.323 19.7455 158.572 19.9643 158.876 19.9743H160.288C160.61 19.9529 160.865 19.6963 160.864 19.3786L160.865 9.41191L160.865 9.23245C160.866 7.63203 160.867 5.76813 160.145 4.35678C159.365 2.82306 157.866 1.81213 156.306 1.81213L156.177 1.81395L156.063 1.81213C153.857 1.81213 152.184 3.39371 151.296 5.62068C150.727 3.36499 149.194 1.81213 147.099 1.81213L146.98 1.81395L146.856 1.81213C144.881 1.81213 143.318 3.31212 142.479 5.22597V2.8103C142.453 2.50265 142.187 2.26473 141.863 2.26473L140.682 2.26518C140.377 2.28478 140.131 2.51814 140.108 2.80985V19.3786ZM130.235 19.9743C125.703 19.9743 123.676 15.3905 123.676 10.8076C123.676 5.98496 126.061 1.81213 130.623 1.81213L130.74 1.81302L130.864 1.81213C135.307 1.81213 137.514 6.25865 137.514 10.8416C137.514 15.6991 135.068 19.9743 130.476 19.9743L130.359 19.9725L130.235 19.9743ZM133.933 15.2536C133.236 16.7844 132.06 17.6998 130.569 17.7486C129.242 17.7021 128.013 16.8578 127.376 15.5618C126.72 14.1938 126.511 12.3808 126.511 10.8076C126.511 9.40515 126.69 7.72904 127.257 6.46347C127.894 5.00067 129.153 4.05439 130.564 4.00297C131.832 4.04992 133.03 4.82671 133.724 6.05338C134.498 7.45536 134.678 9.16545 134.678 10.8076C134.678 12.3124 134.558 13.8857 133.933 15.2536ZM120.212 13.9049C119.755 16.0005 118.652 17.6171 116.552 17.6806C113.392 17.5804 112.642 13.5431 112.642 10.7736C112.642 7.90435 113.541 4.16843 116.701 4.07184C118.685 4.134 119.876 5.71753 120.226 7.70847C120.272 7.98842 120.472 8.24154 120.774 8.28268L122.23 8.29922C122.534 8.26479 122.792 8.03359 122.792 7.76616C122.292 4.19929 119.991 1.81213 116.766 1.81213L116.639 1.81347L116.516 1.81213C111.869 1.81213 109.838 6.42948 109.838 10.9444C109.838 15.4938 111.838 19.9743 116.485 19.9743L116.606 19.9725L116.735 19.9743C119.928 19.9743 122.168 17.5523 122.809 13.9876C122.834 13.6943 122.534 13.4532 122.205 13.4367L120.817 13.4425C120.511 13.4425 120.302 13.6437 120.212 13.9049ZM51.9748 11.2556C51.9747 11.2023 51.9747 11.1486 51.9747 11.0946V10.4067C49.6184 10.4067 47.1305 10.8994 47.1305 13.6059C47.1305 14.9808 47.8617 15.9102 49.1111 15.9102C50.0249 15.9102 50.8471 15.3605 51.3654 14.4657C51.9771 13.4129 51.9761 12.4233 51.9748 11.2556ZM9.59638 11.0942C9.59638 12.3328 9.62673 13.3645 8.98706 14.4653C8.46926 15.3601 7.64658 15.9098 6.73238 15.9098C5.48386 15.9098 4.75269 14.9804 4.75269 13.6055C4.75269 10.899 7.24052 10.4062 9.59638 10.4062V11.0942Z" fill="#030303"/>
</svg>
