<svg width="106" height="46" viewBox="0 0 106 46" fill="none" xmlns="http://www.w3.org/2000/svg">
<path fill-rule="evenodd" clip-rule="evenodd" d="M85.7495 7.3535C86.117 7.86517 85.7835 9.46603 86.1842 9.42177C86.5765 9.37435 87.9311 6.74164 87.4791 5.8355C87.0251 4.92858 83.8366 3.86995 83.2952 3.83308C81.1382 3.7028 80.4997 5.44072 80.2455 6.82828C80.1353 7.45448 78.0769 11.9612 78.1782 11.824L82.4315 6.98897C83.1686 6.24793 85.2176 6.61876 85.7495 7.3535ZM65.0184 43.3042C64.8556 43.7008 64.3271 43.0708 64.4925 42.6266C64.5345 42.5029 65.1878 41.0709 66.6161 41.374C67.012 41.4593 65.5349 42.0294 65.0184 43.3042ZM87.502 21.933C88.4707 21.3636 91.3038 16.9084 91.4065 17.1438C91.506 17.3774 91.6646 18.6151 91.3542 19.4798C90.9446 20.6169 87.502 21.933 87.502 21.933ZM93.0891 12.1875C92.9997 11.9654 95.5759 16.8658 95.0672 19.0303C94.2481 22.4608 91.2017 24.828 91.2017 24.828C91.2017 24.828 92.6634 22.0195 92.8796 21.5211C93.0965 21.0182 94.5524 15.9125 93.0891 12.1875ZM100.352 15.025C101.884 17.6755 99.775 20.681 99.3104 21.1106C98.9342 21.4661 98.1637 21.8848 97.6415 22.1446C98.564 21.2875 99.4161 20.2178 99.6598 18.9653C99.9026 17.6883 99.5033 16.4173 98.8436 14.9875C98.7163 14.7139 96.3829 11.258 96.1771 11.0591C96.5673 11.1238 99.5639 13.2639 100.352 15.025ZM101.324 21.2587C103.252 19.3229 103.552 17.2736 103.649 16.4243C104.012 18.2626 102.967 20.9022 102.128 22.1044C101.414 22.1371 100.723 22.2268 100.075 22.338C100.559 22.0737 100.875 21.7135 101.324 21.2587ZM92.7519 33.9055C89.9128 37.5531 85.1312 37.4097 81.8646 38.7236C78.0515 40.2576 75.4527 42.9549 74.7702 43.638C73.5987 44.806 72.1155 44.5065 71.3176 44.457C70.5198 44.4085 69.7417 44 69.4214 43.943C69.0982 43.8768 68.3347 43.9611 68.3347 43.9611C68.3347 43.9611 68.3586 43.595 68.6355 43.4148C68.9138 43.2343 69.4786 43.175 70.4789 42.9737C71.4856 42.7725 72.2475 42.227 72.645 41.9672C73.0467 41.7065 72.7856 41.6217 72.5219 41.6847C72.2674 41.7463 71.4616 42.0677 70.0608 42.2687C68.6593 42.4735 68.2178 42.368 67.6751 42.7339C67.1339 43.0945 67.2536 44.0238 67.1339 44.2815C67.0119 44.5421 66.9136 44.605 66.7339 44.4413C66.5542 44.2815 66.4772 43.6579 66.6157 43.1315C66.7571 42.6099 67.578 42.1906 68.3347 42.006C69.0982 41.8262 70.7398 41.7208 72.5042 40.7786C77.7393 37.9899 80.0424 35.8905 84.6758 32.3001C89.605 28.4831 93.996 26.3803 97.4532 24.6955C99.5829 23.6562 105.908 22.8821 105.908 22.8821C105.908 22.8821 105.005 22.2657 104.061 22.162C103.503 22.0996 102.948 22.0807 102.409 22.0955C103.264 21.6284 105.469 19.9193 105.793 17.7284C106.221 14.7916 102.35 12.375 102.296 9.70419C102.171 3.49498 95.9655 2.62193 96.249 2.79427C97.4165 3.51136 98.6103 4.91326 98.8342 5.72409C99.2359 7.18727 98.0058 8.78782 96.1994 9.39243C95.3382 9.68088 90.5744 10.729 89.9373 11.3733C89.2911 12.0147 90.609 15.4025 89.7679 16.7698C88.9234 18.1405 84.1836 20.4879 83.6252 21.1536C83.0606 21.8142 82.4616 21.6166 82.2585 21.5966C82.0613 21.5741 82.2193 21.8398 82.8015 21.958C83.3852 22.0804 84.3857 21.7357 84.9673 21.418C85.548 21.0895 86.3612 21.7853 86.3243 22.2301C86.2803 22.6677 85.7333 22.8049 84.6666 23.476C83.8131 24.019 81.3981 22.5004 81.1973 21.9961C81 21.4939 81.7027 21.6595 82.1414 21.11C82.5808 20.5703 81.8198 20.4874 81.5396 20.5703C81.2575 20.6511 81.0982 20.5106 80.8159 20.429C80.5387 20.3493 80.1782 20.429 79.9963 20.6333C79.8171 20.8307 79.9963 20.992 79.3354 21.0763C78.6718 21.153 78.9774 20.3491 79.1165 19.4831C79.257 18.6176 79.7997 16.3246 79.6984 16.026C79.5943 15.7192 79.5731 15.8405 79.3357 15.5588C79.0934 15.273 79.0779 14.7716 79.053 13.949C79.0334 13.1238 79.0934 11.5948 79.0934 11.5948C79.0934 11.5948 78.5927 12.3383 78.371 13.6424C78.1521 14.9558 79.0533 15.6818 79.0782 15.8813C79.0937 16.0834 79.0533 16.5634 78.6573 18.879C78.2528 21.1946 78.7528 21.6377 79.2573 22.0431C79.7562 22.4471 82.0032 23.6131 82.0032 23.6131L81.9609 24.6558C81.9609 24.6558 80.8539 25.0173 79.8 25.704C78.7434 26.3871 78.356 27.6133 78.2733 28.0179C78.1924 28.4219 78.4148 28.3581 78.4148 28.3581C78.4148 28.3581 78.6573 28.099 79.4806 27.4533C80.2952 26.8108 82.0987 26.465 82.3214 26.4484C82.5466 26.4305 82.5621 26.509 82.2792 26.7102C81.999 26.9087 81.2575 27.4533 79.6791 28.64C78.0966 29.8298 77.8736 31.316 77.8736 31.6612C77.8736 31.9986 78.0966 31.7224 78.0966 31.7224C78.0966 31.7224 78.3146 31.2153 78.8577 30.715C79.3953 30.2126 80.6194 29.9089 81.978 29.689C83.3398 29.4661 83.5625 29.1242 83.9815 28.4977C84.4008 27.8796 85.5477 26.71 85.7879 26.5663C86.0286 26.4304 86.0868 26.5088 85.9467 26.6064C85.8089 26.71 85.7308 26.7904 85.0046 27.575C84.2832 28.358 84.1634 29.2873 84.1634 29.2873C84.1634 29.2873 84.5618 28.7427 85.4461 28.1157C86.329 27.4887 88.47 26.7902 89.0352 26.6492C89.5918 26.5082 89.5515 26.5856 89.4559 26.668C89.3566 26.7492 89.2914 26.7697 88.6685 27.0905C88.051 27.4126 85.8666 28.7194 82.985 30.8547C80.0485 33.0413 77.6475 35.5715 75.2878 37.3343C72.9431 39.085 71.163 39.8695 70.2424 40.0324C69.3212 40.1924 68.2386 39.6516 66.8717 39.5881C65.5132 39.5319 64.591 40.4549 64.4507 40.6589C64.3083 40.8574 64.3083 41.0401 64.4278 41.0189C64.5506 40.9966 64.7707 40.7567 64.9724 40.7567C65.1698 40.7567 65.154 40.8785 65.154 40.8785C65.154 40.8785 65.0553 40.919 64.6704 41.1138C64.2874 41.3227 63.7084 41.8876 63.4304 42.7579C63.1528 43.6153 63.8064 44.9019 63.8064 44.9019C63.8064 44.9019 64.2357 44.9019 64.8146 45.1464C65.3937 45.3863 65.7718 45.5458 66.054 45.7101C66.3336 45.8704 66.6157 45.9082 67.1937 45.7554C67.7721 45.588 68.9591 45.588 69.7769 45.631C70.5992 45.6688 73.7984 46.4533 75.844 45.111C82.2592 39.4511 88.9742 39.9366 91.3866 39.085C96.3317 37.2798 95.5182 30.5698 104.217 31.5848C103.836 30.6277 97.0325 28.4232 92.7519 33.9055ZM73.8496 20.026C74.1716 20.2806 74.8058 21.4383 74.723 21.2609C74.6382 21.0772 74.9811 19.9999 74.2612 18.675C73.5357 17.346 73.3176 16.8706 73.0062 15.5468C72.6935 14.2135 72.1274 13.1151 73.0695 12.2941C74.0226 11.476 74.7564 10.2876 75.0569 9.02854C75.3598 7.76874 76.3668 6.77737 77.4969 5.39769C78.6248 4.02116 78.8475 3.82566 78.8475 3.82566C78.582 4.18893 78.0537 5.65037 77.805 6.4234C77.5487 7.19673 76.3245 8.88377 75.7724 9.77998C75.222 10.677 73.9566 12.4124 73.8454 14.0332C73.7439 15.6499 75.0704 17.5815 75.2667 18.2827C75.4614 18.9853 75.0012 21 75.4862 22.4268C75.9623 23.8535 77.3087 25.1889 77.5499 25.3648C77.7909 25.532 77.7373 25.3648 77.6567 25.2624C77.575 25.1704 77.4176 25.0236 77.095 24.335C76.772 23.6502 76.9177 22.8841 77.1419 21.849C77.3697 20.8113 77.4931 19.9739 77.3909 18.9352C77.2959 17.8969 76.4678 16.1362 76.2155 15.0593C75.9626 13.9872 76.6127 12.9324 77.6824 11.1015C78.7504 9.26563 78.9096 7.71659 79.0535 6.58172C79.1971 5.44653 79.8146 3.82849 81.5164 3.11376C82.4987 2.70622 85.2412 3.26798 86.6711 4.16955C87.6818 4.84411 88.1777 5.47614 88.3161 6.1945C88.4867 7.03872 87.9762 7.62081 87.6571 8.45464C87.3425 9.28753 87.117 10.2436 87.4791 10.2071C87.7947 10.1738 91.4847 7.06172 92.3121 6.1611C92.7205 5.71118 93.2649 4.55929 92.4901 3.5287C91.8154 2.63344 87.0252 2.2333 86.0939 0.940573C85.2719 -0.20281 83.1458 -0.142317 82.5244 0.276409C81.9453 0.664416 80.6736 1.73833 79.4385 2.16068C78.2 2.5857 76.9244 2.79192 75.2522 3.64197C73.582 4.50116 73.6469 5.49426 73.4699 6.22159C73.2883 6.94357 73.1526 8.90046 71.7875 10.9881C70.4134 13.0809 71.2119 14.5243 71.8844 16.6392C72.5609 18.7498 73.5241 19.7743 73.8496 20.026ZM82.9329 18.946C82.8999 19.1886 83.1387 18.9693 83.3325 18.6943C83.5233 18.417 84.2804 17.1709 85.4936 15.0592C86.7112 12.9438 87.4453 11.1359 87.3733 11.0907C87.3017 11.0424 87.1198 11.2175 86.9283 11.3645C86.7308 11.5072 86.3339 11.8951 85.9961 12.3207C85.6653 12.7412 85.3879 12.7047 84.968 12.7886C84.5451 12.8772 83.7772 13.7195 83.3322 14.0728C82.887 14.4194 82.2977 14.775 81.7458 14.866C81.156 14.9645 81.0577 14.6979 80.8062 14.7435C80.5553 14.792 80.5636 15.2068 80.6481 15.497C80.7363 15.7874 80.6645 15.9152 80.616 16.4245C80.5691 16.9371 80.929 17.4387 81.2304 17.7286C81.5278 18.0172 81.4417 18.4662 81.634 18.6205C81.8322 18.7762 81.9023 17.7387 81.9023 17.0972C81.9023 16.4604 81.756 15.8334 81.7817 15.7367C81.8077 15.6384 82.3109 15.5072 82.5474 15.3452C82.792 15.1932 83.3822 14.7695 83.6657 14.6274C83.9564 14.478 83.9597 14.5894 83.8869 14.7578C83.815 14.9259 83.6535 15.1836 83.332 15.4562C83.0052 15.7367 82.237 15.9508 82.0679 15.962C81.8985 15.9763 81.9107 16.1268 82.082 16.2575C82.2529 16.3888 82.6764 16.3888 83.0568 16.2953C83.439 16.1917 83.39 16.6911 83.3425 17.2213C83.2955 17.7538 82.9715 18.708 82.9329 18.946ZM91.2112 1.57324C94.0749 2.50726 94.7104 4.98889 93.7172 6.12503C93.1659 6.75769 92.5376 7.13483 91.0968 8.03183C89.6577 8.92709 89.0915 9.39686 88.6323 9.74281C88.1779 10.0984 87.9206 10.5902 88.9193 10.3258C89.0211 10.2991 95.0853 8.98617 95.8687 8.57406C97.1871 7.88737 97.5622 7.40358 97.772 6.51115C97.9721 5.61462 96.6156 4.13852 95.9764 3.40489C94.6886 1.91587 91.6061 0.365106 91.4667 0.349353C89.9163 -0.170825 88.0122 0.257668 86.4677 0.33486C86.2996 0.342421 86.3593 0.597469 86.4506 0.664264C87.8293 1.63956 89.5175 1.17389 91.2112 1.57324Z" fill="#030303"/>
<path fill-rule="evenodd" clip-rule="evenodd" d="M2.04889 37.4817V20.8325H5.79652V34.4566H11.7811V37.4817H2.04889Z" fill="#030303"/>
<path fill-rule="evenodd" clip-rule="evenodd" d="M14.2117 37.4817V20.8325H17.9587V37.4817H14.2117Z" fill="#030303"/>
<path fill-rule="evenodd" clip-rule="evenodd" d="M30.5635 34.7518C32.1524 34.7518 33.4626 34.2233 34.496 33.1666C35.5298 32.1082 36.0468 30.7831 36.0468 29.1913C36.0468 27.6147 35.524 26.2877 34.4784 25.2108C33.4328 24.1346 32.1276 23.5962 30.5635 23.5962C28.9758 23.5962 27.659 24.1328 26.6134 25.2052C25.5678 26.2784 25.0453 27.607 25.0453 29.1913C25.0453 30.7987 25.5597 32.1275 26.5894 33.1776C27.6195 34.2272 28.9435 34.7518 30.5635 34.7518ZM39.901 29.1911C39.901 30.3822 39.6675 31.5071 39.2004 32.5688C38.7342 33.6299 38.062 34.5625 37.1839 35.3664C36.2735 36.193 35.2486 36.8263 34.1069 37.2653C32.9652 37.7045 31.784 37.9249 30.5633 37.9249C29.4939 37.9249 28.4471 37.7531 27.4212 37.4079C26.3959 37.0627 25.4563 36.5679 24.6021 35.9235C23.5008 35.0901 22.6564 34.0929 22.0701 32.933C21.4834 31.7734 21.1906 30.5257 21.1906 29.1914C21.1906 27.9935 21.4219 26.8698 21.8845 25.82C22.3475 24.7696 23.0266 23.8351 23.9195 23.0162C24.7976 22.2051 25.8171 21.5759 26.9789 21.1289C28.1394 20.6817 29.3349 20.458 30.5633 20.458C31.784 20.458 32.9715 20.6817 34.1248 21.1289C35.2781 21.576 36.2977 22.2051 37.1838 23.0162C38.0691 23.8352 38.744 24.7718 39.2065 25.8255C39.6693 26.8791 39.901 28.0009 39.901 29.1911Z" fill="#030303"/>
<path fill-rule="evenodd" clip-rule="evenodd" d="M43.0612 37.4817V20.8325H46.9518L54.7088 30.5213C54.933 30.794 55.1781 31.1792 55.4458 31.6758C55.7128 32.1721 55.9908 32.7582 56.2774 33.4327C56.1893 32.9392 56.1257 32.4513 56.0861 31.9658C56.0457 31.4803 56.0251 30.8738 56.0251 30.1464V20.8325H59.6056V37.4817H55.93L47.9575 27.6106C47.7339 27.3374 47.4909 26.9523 47.2268 26.4559C46.964 25.9596 46.6843 25.3667 46.3892 24.6762C46.4773 25.1538 46.5408 25.6373 46.581 26.1263C46.6205 26.6153 46.6402 27.2309 46.6402 27.9743V37.4817H43.0612Z" fill="#030303"/>
<path fill-rule="evenodd" clip-rule="evenodd" d="M62.3829 35.3661L64.4658 33.1263C64.7295 33.7399 65.1518 34.2228 65.7346 34.5761C66.3172 34.9284 66.9717 35.1045 67.698 35.1045C68.5761 35.1045 69.2698 34.9072 69.7818 34.5134C70.2923 34.1189 70.5468 33.5882 70.5468 32.9212C70.5468 32.1326 69.6965 31.3484 67.9973 30.5669C67.4463 30.3175 67.0112 30.1117 66.6919 29.9526C65.1598 29.1946 64.0985 28.4539 63.5085 27.7301C62.9173 27.0058 62.6221 26.1433 62.6221 25.1431C62.6221 23.7705 63.1949 22.6427 64.3405 21.7596C65.4853 20.8761 66.9717 20.4346 68.7997 20.4346C69.8611 20.4346 70.7761 20.6107 71.5468 20.9636C72.3159 21.3157 72.9978 21.867 73.588 22.6183L71.3735 24.6307C71.1101 24.1461 70.7607 23.7836 70.3257 23.5443C69.8909 23.3053 69.3659 23.1864 68.7512 23.1864C68.0092 23.1864 67.4107 23.3627 66.9557 23.7149C66.5014 24.0678 66.2739 24.5248 66.2739 25.0851C66.2739 25.965 67.1755 26.7687 68.9791 27.4965C69.338 27.6405 69.613 27.7542 69.8054 27.8377C71.2893 28.4816 72.389 29.2097 73.1029 30.0208C73.8171 30.832 74.1739 31.757 74.1739 32.7958C74.1739 34.357 73.6134 35.6028 72.4923 36.532C71.3713 37.4602 69.8649 37.9243 67.9733 37.9243C66.6328 37.9243 65.4831 37.7043 64.5261 37.2646C63.5679 36.826 62.853 36.1927 62.3829 35.3661Z" fill="#030303"/>
<path fill-rule="evenodd" clip-rule="evenodd" d="M10.2576 10.2237C9.73841 9.78384 9.20762 9.46121 8.66335 9.25625C8.11799 9.05146 7.53373 8.94938 6.91231 8.94938C5.63608 8.94938 4.6192 9.31234 3.86168 10.0368C3.104 10.7624 2.72531 11.7363 2.72531 12.9585C2.72531 14.1557 3.07624 15.1041 3.78045 15.8061C4.48419 16.5083 5.44274 16.8593 6.65845 16.8593C7.35105 16.8593 7.99411 16.7492 8.58871 16.5285C9.183 16.3087 9.73449 15.9786 10.2411 15.5381L10.225 18.0325C9.6796 18.3379 9.10836 18.5657 8.51141 18.716C7.91367 18.8657 7.28535 18.9416 6.62536 18.9416C4.71799 18.9416 3.15214 18.378 1.92686 17.2514C0.702847 16.1251 0.0913086 14.694 0.0913086 12.9585C0.0913086 11.2286 0.703631 9.80132 1.93188 8.67795C3.15888 7.55347 4.73931 6.9917 6.67507 6.9917C7.32408 6.9917 7.95068 7.05629 8.55594 7.18578C9.16231 7.31527 9.7591 7.51471 10.3471 7.7841L10.2576 10.2237Z" fill="#030303"/>
<path fill-rule="evenodd" clip-rule="evenodd" d="M18.8368 14.3105L17.4957 10.6356C17.457 10.5272 17.408 10.3408 17.3484 10.076C17.2882 9.81247 17.2254 9.48858 17.1598 9.10498C17.0892 9.47314 17.021 9.80301 16.9555 10.0959C16.8899 10.3887 16.841 10.5841 16.8086 10.6825L15.5159 14.3107L18.8368 14.3105ZM11.2142 18.6384L15.7693 7.26367H18.6977L23.3191 18.6384H20.4069L19.4341 16.2223H14.796L13.9625 18.6384H11.2142Z" fill="#030303"/>
<path fill-rule="evenodd" clip-rule="evenodd" d="M24.5789 18.6383V7.26367H27.2364L32.5365 13.8836C32.6897 14.0698 32.8577 14.333 33.0391 14.6716C33.2224 15.0109 33.4128 15.4113 33.608 15.872C33.5479 15.5353 33.5048 15.2013 33.4769 14.8704C33.4501 14.5383 33.4361 14.1241 33.4361 13.6266V7.26367H35.8815V18.6384H33.3714L27.9238 11.8941C27.7712 11.7071 27.6049 11.4446 27.4249 11.1053C27.2441 10.7661 27.0543 10.3608 26.8522 9.8893C26.912 10.2154 26.9554 10.5457 26.9828 10.8802C27.0103 11.214 27.0233 11.6351 27.0233 12.1431V18.6383H24.5789Z" fill="#030303"/>
<path fill-rule="evenodd" clip-rule="evenodd" d="M38.548 18.6383V7.26367H41.2058L46.5055 13.8836C46.6587 14.0698 46.8266 14.333 47.009 14.6716C47.1917 15.0109 47.3808 15.4113 47.578 15.872C47.517 15.5353 47.4738 15.2013 47.4465 14.8704C47.419 14.5383 47.4056 14.1241 47.4056 13.6266V7.26367H49.8514V18.6384H47.34L41.8931 11.8941C41.7399 11.7071 41.5741 11.4446 41.394 11.1053C41.2138 10.7661 41.0236 10.3608 40.8218 9.8893C40.8815 10.2154 40.9247 10.5457 40.9524 10.8802C40.9794 11.214 40.9933 11.6351 40.9933 12.1431V18.6383H38.548Z" fill="#030303"/>
<path fill-rule="evenodd" clip-rule="evenodd" d="M52.5178 18.6383V7.26367H59.5678V9.31493H55.0777V11.6535H59.5678V13.7201H55.0777V16.5713H59.5678V18.6383H52.5178Z" fill="#030303"/>
<path fill-rule="evenodd" clip-rule="evenodd" d="M61.3094 17.1933L62.7323 15.6629C62.9121 16.0824 63.2013 16.4121 63.5994 16.6533C63.9969 16.8941 64.4452 17.0147 64.941 17.0147C65.5405 17.0147 66.0148 16.8801 66.3637 16.6103C66.7128 16.3414 66.8879 15.9787 66.8879 15.523C66.8879 14.9844 66.3073 14.4481 65.1454 13.9147C64.7687 13.7435 64.4719 13.6034 64.2536 13.4947C63.2074 12.9771 62.4819 12.4704 62.0784 11.9758C61.6751 11.4808 61.473 10.8921 61.473 10.2084C61.473 9.27075 61.8641 8.50009 62.6471 7.89642C63.4291 7.29353 64.4452 6.9917 65.6929 6.9917C66.4188 6.9917 67.0438 7.11174 67.5713 7.35277C68.0964 7.5938 68.562 7.97093 68.9656 8.48355L67.4521 9.85835C67.2726 9.52706 67.0338 9.27988 66.7368 9.11668C66.4398 8.95316 66.0812 8.87219 65.6609 8.87219C65.1546 8.87219 64.7449 8.99207 64.435 9.23357C64.1241 9.47397 63.9682 9.78573 63.9682 10.1693C63.9682 10.7703 64.5845 11.3196 65.8168 11.8167C66.0619 11.9151 66.2505 11.9928 66.381 12.0497C67.3954 12.4906 68.1466 12.9873 68.6338 13.5418C69.1219 14.096 69.3661 14.7279 69.3661 15.4377C69.3661 16.5049 68.9836 17.3559 68.2176 17.9898C67.4513 18.6243 66.4224 18.9419 65.1298 18.9419C64.2136 18.9419 63.4284 18.7915 62.7748 18.4911C62.1189 18.191 61.6311 17.7584 61.3094 17.1933Z" fill="#030303"/>
</svg>
