<svg width="92" height="29" viewBox="0 0 92 29" fill="none" xmlns="http://www.w3.org/2000/svg">
<path fill-rule="evenodd" clip-rule="evenodd" d="M3.70325 14.2124H0V9.65849H3.808V8.50169C3.808 2.89929 6.35785 0.947266 11.3883 0.947266C12.6256 0.947266 13.6033 1.12617 14.3744 1.26725C14.4524 1.28151 14.5282 1.29539 14.602 1.30866L14.2174 5.79084C13.6938 5.60996 13.1697 5.5015 12.2265 5.5015C10.6197 5.5015 9.99096 6.65812 9.99096 8.50169V9.65849H14.4619V14.2124H9.99096V28.4894H3.70325V14.2124ZM18.7098 1.79492H25.2582V28.924H18.7098V1.79492ZM36.4839 1.79492H29.9355V6.47234H36.4839V1.79492ZM29.9355 9.27832H36.4839V27.988H29.9355V9.27832ZM50.7406 14.0365C52.2601 14.0365 53.4264 14.3608 54.5926 15.0815L55.0523 10.3236C53.6032 9.60297 51.907 9.27832 49.9986 9.27832C43.92 9.27832 39.2904 12.8831 39.2904 19.1187C39.2904 25.3185 43.92 28.9235 49.9986 28.9235C51.695 28.9235 53.6032 28.6349 55.1936 28.0938L55.0523 23.2639C53.9919 23.8408 52.5429 24.1647 51.0947 24.1647C48.3378 24.1647 45.8637 22.219 45.8637 19.2268C45.8637 15.9828 47.9841 14.0365 50.7406 14.0365ZM58.9355 1.79492H65.1258V18.0004H65.195L70.3538 10.0788H77.1292L70.9038 18.7237L77.6452 28.924H70.147L65.195 19.5921H65.1258V28.924H58.9355V1.79492ZM89.271 14.807C89.9928 14.807 90.6807 14.807 91.3679 15.028L91.6775 9.4997C91.0581 9.38892 90.3017 9.27832 89.5806 9.27832C86.8994 9.27832 85.3524 10.8265 84.2871 13.2594H84.2181V9.72089H78.5807V28.9235H84.7681V20.8151C84.7681 17.0553 86.3838 14.807 89.271 14.807Z" fill="#030303"/>
</svg>
