<svg width="107" height="30" viewBox="0 0 107 30" fill="none" xmlns="http://www.w3.org/2000/svg">
<path fill-rule="evenodd" clip-rule="evenodd" d="M44.0762 10.7139H40.2991C40.2991 10.7139 40.2933 5.69356 40.2933 5.6923C40.2933 5.50232 40.1961 5.40723 39.9778 5.40723H34.8304C34.6304 5.40723 34.5228 5.49584 34.5228 5.68938V10.8788C34.5228 10.8788 31.9434 11.5054 31.769 11.556C31.5951 11.6066 31.4674 11.7679 31.4674 11.9602V15.2212C31.4674 15.4557 31.6537 15.6449 31.8838 15.6449H34.5228V23.4897C34.5228 29.3168 38.5845 29.8893 41.325 29.8893C42.5774 29.8893 44.0754 29.4847 44.3227 29.3927C44.4723 29.3373 44.5591 29.1814 44.5591 29.0123L44.5634 25.425C44.5634 25.1912 44.367 25.0018 44.146 25.0018C43.9259 25.0018 43.3626 25.0919 42.783 25.0919C40.9277 25.0919 40.2991 24.2237 40.2991 23.0999C40.2991 21.9772 40.2991 15.6449 40.2991 15.6449H44.0762C44.3065 15.6449 44.493 15.4557 44.493 15.2212V11.1365C44.493 10.9027 44.3065 10.7139 44.0762 10.7139ZM99.29 10.1898C96.4521 10.1898 94.5217 11.4641 94.5217 11.4641V2.48503C94.5217 2.25095 94.336 2.06201 94.1063 2.06201H89.0567C88.8272 2.06201 88.6405 2.25095 88.6405 2.48503V29.0013C88.6405 29.2354 88.8272 29.4258 89.0573 29.4258H92.5609C92.7188 29.4258 92.8382 29.3438 92.9262 29.2004C93.0135 29.0579 93.1389 27.9778 93.1389 27.9778C93.1389 27.9778 95.2039 29.947 99.1127 29.947C103.702 29.947 106.333 27.6047 106.333 19.4312C106.333 11.2578 102.13 10.1898 99.29 10.1898ZM97.3193 25.13C95.586 25.0769 94.4105 24.2854 94.4105 24.2854V15.8882C94.4105 15.8882 95.5704 15.1728 96.9933 15.0449C98.7928 14.8827 100.527 15.4297 100.527 19.7495C100.527 24.3046 99.744 25.2036 97.3193 25.13ZM85.8065 10.7593H80.8096C80.5806 10.7593 80.3939 10.9493 80.3939 11.1831V24.185C80.3939 24.185 79.1245 25.1195 77.3227 25.1195C75.521 25.1195 75.0427 24.297 75.0427 22.5218V11.1831C75.0427 10.9493 74.8566 10.7593 74.6272 10.7593H69.5562C69.3271 10.7593 69.1398 10.9493 69.1398 11.1831V23.3802C69.1398 28.6532 72.06 29.9434 76.0778 29.9434C79.3735 29.9434 82.031 28.1111 82.031 28.1111C82.031 28.1111 82.1575 29.0767 82.2148 29.1914C82.2721 29.3055 82.4213 29.4207 82.5824 29.4207L85.8086 29.4065C86.0376 29.4065 86.225 29.2161 86.225 28.9832L86.2235 11.1831C86.2235 10.9493 86.0368 10.7593 85.8065 10.7593ZM29.5839 23.4215V11.1817C29.5839 10.9493 29.3974 10.7593 29.1673 10.7593H24.1476C23.9175 10.7593 23.7113 10.9984 23.7113 11.2308V28.7667C23.7113 29.2823 24.0305 29.4355 24.4436 29.4355H28.9659C29.4622 29.4355 29.5839 29.1906 29.5839 28.7586V23.4215ZM29.9836 6.03023C29.9836 4.20545 28.5298 2.73096 26.7362 2.73096C24.9446 2.73096 23.4897 4.20545 23.4897 6.03023C23.4897 7.85292 24.9446 9.33138 26.7362 9.33138C28.5298 9.33138 29.9836 7.85292 29.9836 6.03023ZM66.5614 2.48503C66.5614 2.25095 66.377 2.06201 66.1463 2.06201H61.1108C60.8809 2.06201 60.694 2.25095 60.694 2.48503C60.694 2.48628 60.6952 12.2779 60.6952 12.2779H52.8463V2.48503C52.8463 2.25095 52.6611 2.06201 52.4309 2.06201H47.3955C47.1664 2.06201 46.9795 2.25095 46.9795 2.48503V29.0013C46.9795 29.2354 47.1664 29.4258 47.3955 29.4258H52.4309C52.6611 29.4258 52.8463 29.2354 52.8463 29.0013V17.6593H60.6952C60.6952 17.6593 60.6813 29.0004 60.6813 29.0013C60.6813 29.2354 60.8682 29.4258 61.0986 29.4258H66.1459C66.3766 29.4258 66.561 29.2354 66.5614 29.0013V2.48503ZM20.4976 13.3437H11.5544C11.3239 13.3437 11.1368 13.5322 11.1368 13.7644V18.1645C11.1368 18.3967 11.3239 18.5858 11.5544 18.5858H15.0433V24.0524C15.0433 24.0524 14.2599 24.321 12.0942 24.321C9.53905 24.321 5.96983 23.3817 5.96983 15.483C5.96983 7.58281 9.68651 6.54345 13.1758 6.54345C16.1963 6.54345 17.4974 7.07849 18.3255 7.33639C18.5855 7.41665 18.8262 7.15603 18.8262 6.92362L19.8239 2.67214C19.8239 2.56367 19.7873 2.43263 19.664 2.3438C19.328 2.10241 17.2765 0.947266 12.0942 0.947266C6.12414 0.947266 0 3.50334 0 15.7911C0 28.0792 7.01156 29.9103 12.9197 29.9103C17.8119 29.9103 20.7797 27.8067 20.7797 27.8067C20.902 27.7386 20.9153 27.5665 20.9153 27.4875V13.7644C20.9153 13.5322 20.7281 13.3437 20.4976 13.3437Z" fill="#030303"/>
</svg>
