<svg width="89" height="34" viewBox="0 0 89 34" fill="none" xmlns="http://www.w3.org/2000/svg">
<path fill-rule="evenodd" clip-rule="evenodd" d="M76.3245 23.4723C76.4698 21.3881 77.5894 19.1976 79.6223 18.4088C80.6994 18.0115 82.2039 17.9265 82.9807 18.9248C83.6938 19.9833 83.0294 21.3788 82.0887 22.0493C80.4354 23.2447 78.2994 23.4267 76.3245 23.4723ZM25.5609 0.596651C22.7118 -0.480457 19.1408 -0.155819 16.8927 2.03471C14.7814 4.07378 14.1291 7.18021 14.3536 10.0169C14.5782 14.1433 16.7625 18.2786 20.5062 20.2202C18.98 23.2265 17.0628 26.0544 14.6783 28.4482C12.0324 25.2838 9.96945 21.6428 8.59206 17.7564C7.12078 13.6761 6.31649 9.392 5.77661 5.09907C4.64912 5.09024 3.52056 5.09176 2.39156 5.09328C1.59452 5.09436 0.797261 5.09543 0 5.09287V5.32361C0.864521 11.4125 2.21489 17.5018 4.7996 23.1114C6.40153 26.5487 8.44059 29.8739 11.3194 32.3921C12.2388 33.1508 13.2796 33.9879 14.5387 33.9516C15.8219 33.8795 16.8016 32.9918 17.7131 32.1659C17.7992 32.0878 17.8847 32.0104 17.9698 31.9342C21.1192 28.9 23.7801 25.3351 25.7062 21.4032C28.6705 21.3186 31.741 20.757 34.2318 19.0581C34.2595 20.0572 34.244 21.0609 34.2285 22.0651C34.1949 24.2446 34.1612 26.4269 34.5684 28.5722C34.9387 30.4049 35.8094 32.3009 37.5083 33.2509C39.547 34.355 42.214 34.2368 44.1282 32.9081C45.5725 31.9524 46.5889 30.4988 47.3595 28.973C47.369 29.7798 47.3678 30.5876 47.3665 31.3953C47.3654 32.1395 47.3643 32.8836 47.3715 33.6269C48.7232 33.6316 50.0766 33.631 51.4305 33.6304C51.8816 33.6302 52.3328 33.63 52.784 33.63C52.8149 32.6071 52.8028 31.5786 52.7906 30.5492C52.7609 28.0369 52.7311 25.5194 53.327 23.0658C53.773 21.3425 54.568 19.4615 56.255 18.6302C57.2559 18.1417 58.8065 18.0904 59.3831 19.2312C59.8687 20.2877 59.8548 21.4525 59.8411 22.6011C59.8367 22.9664 59.8324 23.33 59.8441 23.688C59.8597 24.2474 59.8513 24.8161 59.843 25.3875C59.8138 27.3759 59.7842 29.3983 60.7574 31.1848C61.6432 32.9382 63.5786 34.0428 65.5357 33.9879C68.5212 34.0517 71.036 31.7035 72.0373 29.0275C73.6424 32.2039 77.2373 33.9033 80.687 33.9821C83.0263 34.0184 85.5747 33.7576 87.5407 32.3983C87.5536 31.4161 87.5508 30.4326 87.5481 29.4486C87.5463 28.8128 87.5445 28.1768 87.5469 27.5407C85.1956 29.1458 82.1343 29.7587 79.3915 28.9212C78.2994 28.5966 77.3985 27.8109 76.84 26.8281C79.8769 26.8339 83.114 26.4942 85.6628 24.6921C87.3618 23.5361 88.4052 21.4913 88.2839 19.4283C88.2994 17.3259 87.0673 15.2962 85.2076 14.316C82.9776 13.13 80.2472 13.1087 77.8808 13.8851C75.2713 14.762 73.2996 16.9406 72.1498 19.3796C71.5282 20.5992 71.1689 21.9195 70.8098 23.2387C70.3801 24.8172 69.9508 26.3943 69.0731 27.7958C68.5452 28.6635 67.55 29.4886 66.4702 29.1458C65.6053 28.8362 65.3812 27.8233 65.3019 27.0102C65.2495 25.7745 65.2577 24.5374 65.2658 23.2999C65.2736 22.1094 65.2815 20.9186 65.2354 19.7286C65.1411 17.8538 64.5711 15.8573 63.0932 14.5982C61.4549 13.2088 59.0704 13.0932 57.0925 13.7181C55.1172 14.3311 53.5272 15.7935 52.4169 17.4987C52.397 16.9733 52.3796 16.4479 52.3623 15.9227C52.3374 15.1711 52.3125 14.42 52.2805 13.6699C50.7485 13.6606 49.2161 13.6606 47.6842 13.6668C47.4627 17.4805 47.0561 21.3274 45.8577 24.9742C45.3572 26.3396 44.7562 27.7777 43.5702 28.6936C42.7327 29.3672 41.3159 29.4673 40.609 28.5541C39.8021 27.5199 39.7471 26.127 39.7108 24.871C39.704 22.7256 39.705 20.581 39.706 18.4362C39.7068 16.8477 39.7075 15.2591 39.7051 13.6699C38.2121 13.6606 36.7164 13.6575 35.2239 13.6699C33.2911 15.8148 30.4695 17.0832 27.5876 17.1497C25.4635 17.2466 23.2548 16.5004 21.7986 14.9197C20.054 13.0538 19.4929 10.3385 19.7812 7.86004C19.9207 6.84981 20.3123 5.69963 21.3225 5.26604C22.2508 4.84131 23.4005 5.32671 23.7982 6.25191C24.669 8.221 24.1561 10.4328 23.6645 12.4289C24.5808 14.0977 26.8564 14.4556 28.5854 14.0702C29.7414 11.2792 30.1116 8.10585 29.3835 5.15664C28.895 3.15744 27.5114 1.34602 25.5609 0.596651ZM39.6838 4.62857C38.8494 3.84909 37.6266 3.60638 36.5251 3.80347C34.0161 4.12811 33.0971 7.36209 34.335 9.32498C35.4059 11.1302 38.1939 11.3547 39.6807 9.95609C41.152 8.59997 41.167 5.9816 39.6838 4.62857Z" fill="#030303"/>
</svg>
