<svg width="19" height="13" viewBox="0 0 19 13" fill="none" xmlns="http://www.w3.org/2000/svg">
<path fill-rule="evenodd" clip-rule="evenodd" d="M15.1102 2.03247C15.1102 2.03247 15.1102 1.88729 15.1102 2.03247C14.3622 1.30659 13.4646 1.01623 12.5669 1.16141C13.4646 1.01623 13.9134 0.725881 14.063 0.580705C14.063 0.435528 14.063 0.290352 13.9134 0.290352C13.4646 0.290352 13.0157 0.435528 12.7165 0.580705C13.1654 0.290352 13.315 0.145176 13.315 0C12.8661 0 12.4173 0.290352 11.8189 0.725881C11.9685 0.435528 12.1181 0.290352 11.9685 0.145176C11.6693 0.290352 11.5197 0.435528 11.3701 0.725881C10.9213 1.16141 10.622 1.45176 10.4724 1.88729C9.87402 2.90352 9.4252 3.77458 9.12598 4.79081H8.97638C8.67717 4.35528 8.22835 3.91976 7.62992 3.6294C7.0315 3.19387 6.28346 2.90352 5.38583 2.46799C4.48819 2.03247 3.59055 1.59694 2.54331 1.30659C2.54331 2.32282 2.99213 3.19387 4.03937 3.77458C3.74016 3.77458 3.29134 3.77458 2.99213 3.91976C2.99213 4.79081 3.74016 5.51669 5.08661 5.80705C4.6378 5.80705 4.18898 5.95222 3.74016 6.24257C4.18898 7.11363 4.93701 7.40398 6.13386 7.40398C5.98425 7.54916 5.68504 7.69433 5.68504 7.69433C5.53543 7.83951 5.38583 8.12986 5.53543 8.42022C5.83465 8.85574 6.13386 9.00092 6.88189 9.00092C5.83465 10.0172 4.48819 10.5979 2.99213 10.4527C2.09449 10.4527 1.04724 10.0172 0 9.1461C1.04724 10.5979 2.54331 11.7593 4.33858 12.4851C6.43307 13.0659 8.52756 13.211 10.4724 12.6303C12.4173 12.0496 14.2126 10.8882 15.5591 9.29127C16.1575 8.42022 16.6063 7.54916 16.7559 6.6781C17.8032 6.6781 18.5512 6.38775 19 5.80705C18.7008 5.95222 17.9528 5.95222 16.9055 5.66187C17.9528 5.51669 18.7008 5.22634 18.8504 4.64564C18.1024 4.93599 17.3543 4.93599 16.6063 4.64564C16.4567 3.6294 16.0079 2.75835 15.1102 2.03247Z" fill="#BDC6CF"/>
</svg>
