<svg width="22" height="23" viewBox="0 0 22 23" fill="none" xmlns="http://www.w3.org/2000/svg">
<path fill-rule="evenodd" clip-rule="evenodd" d="M15.9288 20.2981C18.2002 20.2981 20.0482 18.4502 20.0482 16.1788H20.0481V6.3212C20.0481 4.04992 18.2001 2.20195 15.9287 2.20195H6.07107C3.79979 2.20195 1.95195 4.04992 1.95195 6.3212V16.1788C1.95195 18.4502 3.79979 20.2982 6.07107 20.2981H15.9288ZM5.33116 11.2503C5.33116 8.12441 7.87415 5.58142 11 5.58142C14.1258 5.58142 16.6688 8.12441 16.6688 11.2503C16.6688 14.376 14.1258 16.9188 11 16.9188C7.87415 16.9188 5.33116 14.376 5.33116 11.2503ZM15.9287 0.25H6.07107C2.72349 0.25 0 2.97362 0 6.3212V16.1788C0 19.5265 2.72349 22.25 6.07107 22.25H15.9287C19.2765 22.25 22 19.5264 22 16.1788V6.3212C22.0001 2.97362 19.2765 0.25 15.9287 0.25ZM16.9066 3.9263C16.5305 3.9263 16.1611 4.07855 15.8955 4.34531C15.6286 4.61078 15.4752 4.98035 15.4752 5.35772C15.4752 5.73393 15.6287 6.10337 15.8955 6.37013C16.1609 6.6356 16.5305 6.78915 16.9066 6.78915C17.284 6.78915 17.6522 6.6356 17.919 6.37013C18.1858 6.10337 18.338 5.7338 18.338 5.35772C18.338 4.98035 18.1858 4.61078 17.919 4.34531C17.6535 4.07855 17.284 3.9263 16.9066 3.9263Z" fill="url(#paint2_linear)"/>
<defs>
<linearGradient id="paint2_linear" x1="14.5538" y1="0.25" x2="5.97949" y2="20.7833" gradientUnits="userSpaceOnUse">
<stop stop-color="#FF3F00"/>
<stop offset="1" stop-color="#FF0047"/>
</linearGradient>
</defs>
</svg>
