<svg width="28" height="19" viewBox="0 0 28 19" fill="none" xmlns="http://www.w3.org/2000/svg">
<path fill-rule="evenodd" clip-rule="evenodd" d="M8.77998 11.2822V7.7178H17.212C17.799 12.0308 16.0276 18.5 8.77998 18.5C3.93136 18.5 0 14.4702 0 9.49965C0 4.52913 3.93136 0.5 8.77998 0.5C11.055 0.5 13.1278 1.38672 14.6876 2.84191C13.4794 4.01189 13.0918 4.45822 12.7627 4.83723C12.5914 5.03453 12.4359 5.2136 12.1887 5.46702C11.2865 4.70227 10.3028 4.15341 8.77998 4.15341C5.89944 4.15341 3.65119 6.5472 3.65119 9.49965C3.65119 12.4528 5.89944 14.8466 8.77998 14.8466C11.6263 14.8466 12.7826 13.5884 13.5265 11.2773C12.153 11.2773 8.77998 11.2822 8.77998 11.2822ZM24.6007 4.77727V7.89585H27.6429V10.1235H24.6007V13.3318H22.4278V10.1235H19.2979V7.89585H22.4278V4.77727H24.6007Z" fill="url(#paint1_linear)"/>
<defs>
<linearGradient id="paint1_linear" x1="18.2868" y1="0.5" x2="13.2914" y2="18.8712" gradientUnits="userSpaceOnUse">
<stop stop-color="#FF3F00"/>
<stop offset="1" stop-color="#FF0047"/>
</linearGradient>
</defs>
</svg>
