<svg width="17" height="17" viewBox="0 0 17 17" fill="none" xmlns="http://www.w3.org/2000/svg">
<path fill-rule="evenodd" clip-rule="evenodd" d="M15.504 0H1.496C0.68 0 0 0.68 0 1.496V5.661H5.661C6.511 5.049 7.412 4.522 8.5 4.522C9.554 4.522 10.506 5.049 11.339 5.661H17V1.496C17 0.68 16.32 0 15.504 0ZM15.861 3.944C15.861 4.267 15.606 4.539 15.283 4.539H13.056C12.733 4.539 12.461 4.267 12.461 3.944V1.717C12.461 1.394 12.733 1.139 13.056 1.139H15.283C15.606 1.139 15.861 1.394 15.861 1.717V3.944ZM11.339 9.061C11.339 7.497 10.064 6.239 8.5 6.239C6.936 6.239 5.661 7.497 5.661 9.061C5.661 10.625 6.936 11.9 8.5 11.9C10.064 11.9 11.339 10.625 11.339 9.061ZM12.835 7.939C12.937 8.279 12.971 8.636 12.971 8.993C12.971 11.475 10.965 13.481 8.5 13.481C6.035 13.481 4.029 11.475 4.029 8.993C4.029 8.636 4.063 8.279 4.165 7.939H0V15.504C0 16.32 0.68 17 1.496 17H15.504C16.32 17 17 16.32 17 15.504V7.939H12.835Z" fill="#BDC6CF"/>
</svg>
