<svg width="25" height="22" viewBox="0 0 25 22" fill="none" xmlns="http://www.w3.org/2000/svg">
  <path fill-rule="evenodd" clip-rule="evenodd"
        d="M23.8243 1.13823C22.8522 1.74513 21.7781 2.18651 20.63 2.42268C19.7155 1.39323 18.4085 0.75 16.9615 0.75C14.1879 0.75 11.937 3.12378 11.937 6.0513C11.937 6.46712 11.9802 6.87015 12.0665 7.25838C7.88909 7.03701 4.18593 4.92901 1.70538 1.71754C1.27233 2.50342 1.02506 3.41512 1.02506 4.38603C1.02506 6.22422 1.91209 7.84711 3.26161 8.79784C2.43868 8.77227 1.6622 8.53139 0.983192 8.13711V8.2017C0.983192 10.7713 2.71604 12.9149 5.01735 13.4001C4.59608 13.5245 4.15126 13.5871 3.69269 13.5871C3.36889 13.5871 3.05293 13.5548 2.74679 13.4929C3.38655 15.5982 5.24173 17.1316 7.44165 17.1727C5.72188 18.5951 3.55336 19.4428 1.19906 19.4428C0.793488 19.4428 0.392492 19.4186 0 19.3702C2.22412 20.8719 4.86755 21.75 7.70527 21.75C16.9517 21.75 22.0064 13.6732 22.0064 6.66695C22.0064 6.43617 22.0024 6.20606 21.9939 5.97998C22.9758 5.23246 23.8288 4.29923 24.5 3.23614C23.5999 3.65734 22.6304 3.94262 21.6139 4.07046C22.652 3.41512 23.4488 2.37625 23.8243 1.13823Z"
        fill="url(#paint3_linear)"/>
  <defs>
    <linearGradient id="paint3_linear" x1="16.2077" y1="0.75" x2="8.90461" y2="21.1538" gradientUnits="userSpaceOnUse">
      <stop stop-color="#FF3F00"/>
      <stop offset="1" stop-color="#FF0047"/>
    </linearGradient>
  </defs>
</svg>
