<svg width="22" height="20" viewBox="0 0 22 20" xmlns="http://www.w3.org/2000/svg">
  <path fill-rule="evenodd" clip-rule="evenodd" d="M13.7273 8.17343C15.8007 7.95722 17.4167 6.21509 17.4167 4.098C17.4167 1.83474 15.5698 0 13.2917 0C11.1606 0 9.407 1.60541 9.18938 3.66525C11.5898 3.891 13.5 5.78874 13.7273 8.17343ZM8.70837 12.7494C10.9865 12.7494 12.8334 10.9146 12.8334 8.65137C12.8334 6.3881 10.9865 4.55336 8.70837 4.55336C6.4302 4.55336 4.58337 6.3881 4.58337 8.65137C4.58337 10.9146 6.4302 12.7494 8.70837 12.7494ZM5.14112 13.1214C4.42272 12.6873 3.49352 12.5654 2.86984 13.1256C1.10739 14.7087 0 16.9982 0 19.5446C0 19.7999 0.213392 19.9999 0.470384 19.9999H16.9463C17.2033 19.9999 17.4167 19.7999 17.4167 19.5446C17.4167 16.9982 16.3093 14.7087 14.5468 13.1256C13.9231 12.5654 12.9939 12.6873 12.2755 13.1214C11.2356 13.7497 10.0145 14.1116 8.70833 14.1116C7.40218 14.1116 6.1811 13.7497 5.14112 13.1214ZM12.4131 12.0486C13.0492 11.3643 13.4957 10.5033 13.6694 9.54805C14.8331 9.48546 15.9199 9.13536 16.8589 8.56801C17.5773 8.13398 18.5065 8.01202 19.1302 8.57224C20.8927 10.1554 22 12.4448 22 14.9912C22 15.2466 21.7866 15.4466 21.5297 15.4466H17.4068C16.8608 14.3048 16.094 13.2877 15.1617 12.4503C14.3234 11.6973 13.2572 11.7364 12.4131 12.0486Z"/>
</svg>
